<?xml version="1.0" encoding="UTF-8" standalone="no"?>
<!-- Created with Inkscape (http://www.inkscape.org/) -->

<svg
   xmlns:dc="http://purl.org/dc/elements/1.1/"
   xmlns:cc="http://creativecommons.org/ns#"
   xmlns:rdf="http://www.w3.org/1999/02/22-rdf-syntax-ns#"
   xmlns:svg="http://www.w3.org/2000/svg"
   xmlns="http://www.w3.org/2000/svg"
   xmlns:sodipodi="http://sodipodi.sourceforge.net/DTD/sodipodi-0.dtd"
   xmlns:inkscape="http://www.inkscape.org/namespaces/inkscape"
   width="1384"
   height="740"
   id="svg6309"
   version="1.1"
   inkscape:version="0.48.4 r9939"
   sodipodi:docname="buttons-346x64.svg">
  <defs
     id="defs6311">
    <filter
       id="filter3015"
       inkscape:label="Glow"
       inkscape:menu="Shadows and Glows"
       inkscape:menu-tooltip="Glow of object's own color at the edges"
       color-interpolation-filters="sRGB">
      <feGaussianBlur
         id="feGaussianBlur3017"
         stdDeviation="5"
         result="result91" />
      <feComposite
         id="feComposite3019"
         in2="result91"
         in="SourceGraphic"
         operator="over" />
    </filter>
    <filter
       id="filter3075"
       inkscape:label="Fuzzy Glow"
       inkscape:menu="Shadows and Glows"
       inkscape:menu-tooltip="Overlays a semi-transparent shifted copy to a blurred one"
       color-interpolation-filters="sRGB">
      <feOffset
         id="feOffset3077"
         dx="4"
         dy="4"
         result="result11"
         in="SourceGraphic" />
      <feGaussianBlur
         id="feGaussianBlur3079"
         stdDeviation="4"
         result="result8" />
      <feComposite
         id="feComposite3081"
         in2="result8"
         result="result9"
         in="SourceGraphic"
         operator="in" />
      <feBlend
         id="feBlend3083"
         in2="result8"
         in="result9"
         mode="darken" />
    </filter>
  </defs>
  <sodipodi:namedview
     id="base"
     pagecolor="#ffffff"
     bordercolor="#666666"
     borderopacity="1.0"
     inkscape:pageopacity="0.0"
     inkscape:pageshadow="2"
     inkscape:zoom="5.4835332"
     inkscape:cx="1390.7141"
     inkscape:cy="133.11982"
     inkscape:document-units="px"
     inkscape:current-layer="layer1"
     showgrid="true"
     inkscape:window-width="1920"
     inkscape:window-height="1058"
     inkscape:window-x="0"
     inkscape:window-y="0"
     inkscape:window-maximized="1">
    <inkscape:grid
       type="xygrid"
       id="grid6317"
       empspacing="5"
       visible="true"
       enabled="true"
       snapvisiblegridlinesonly="true"
       spacingx="346px"
       spacingy="74px" />
  </sodipodi:namedview>
  <metadata
     id="metadata6314">
    <rdf:RDF>
      <cc:Work
         rdf:about="">
        <dc:format>image/svg+xml</dc:format>
        <dc:type
           rdf:resource="http://purl.org/dc/dcmitype/StillImage" />
        <dc:title />
      </cc:Work>
    </rdf:RDF>
  </metadata>
  <g
     inkscape:label="Layer 1"
     inkscape:groupmode="layer"
     id="layer1"
     transform="translate(0,-312.36215)">
    <g
       id="g3137">
      <path
         d="m 33.568805,352.35148 0,0 0.0138,0 0.015,-0.002 c 0.0588,-0.001 0.1125,-0.009 0.175,-0.0138 l 0.015,0 0.0387,-0.005 c 0.0525,-0.005 0.10625,-0.005 0.165,-0.01 l 0.0587,-0.009 0.0188,-0.002 0.0888,-0.01 0.0238,0 0.0188,-0.001 0.0888,-0.0125 0.0187,-0.002 0.0238,-0.006 0.0213,-0.001 0.0188,-0.002 0.0238,0 0.0188,-0.006 0.1025,-0.015 -0.9475,0.1 z m -0.66125,0.004 0.004,0 c 0.0775,0.008 0.15125,0.008 0.21875,0.008 0.0775,0 0.15,0 0.21875,-0.008 l 0.005,0 -0.44625,0 z m 5.77875,0.8275 c 5.59625,2.0925 9.59625,7.24 9.71375,13.30375 l -2.4775,0 c -0.22375,-5.50755 -4.2625,-10.07755 -9.665,-11.3713 l -2.42625,3.1475 2.55375,8.22375 -6.2175,0.0188 2.45625,-8.2425 -2.365,-3.21 c -5.5275,1.21 -9.6875,5.8375 -9.91125,11.43375 l -2.48625,0 c 0.12125,-6.06375 4.1175,-11.21125 9.7175,-13.30375 -3.29,-1.90875 -5.49875,-5.47625 -5.49875,-9.55375 0,-6.10375 4.9525,-11.05 11.05,-11.05 6.1075,0 11.05125,4.94625 11.05125,11.05 0,4.0775 -2.21,7.64125 -5.495,9.55375 m -4.17,-0.93125 0,0 c 4.17,-0.6675 7.34875,-4.275 7.34875,-8.6225 0,-1.3975 -0.3325,-2.7175 -0.915,-3.8925 -2.19625,-2.22875 -4.8425,-0.3975 -5.86375,0.1525 -0.56,0.36875 -1.23625,0.5825 -1.96125,0.5825 -0.7925,0 -1.5275,-0.2575 -2.11625,-0.69375 -1.14875,-0.6525 -3.655,-2.165 -5.7325,0.0337 -0.56,1.15375 -0.87,2.45 -0.87,3.8175 0,4.3475 3.17625,7.955 7.3375,8.6225 l 0.1075,0.015 0.0238,0.006 0.0187,0 0.0213,0.002 0.0238,0.001 0.0188,0.006 0.0188,0.002 0.0838,0.0125 0.0287,0.001 0.0138,0 0.0263,0.002 0.0238,0.002 0.0437,0.007 0.0775,0.009 c 0.0538,0.005 0.1125,0.005 0.16625,0.01 l 0.0375,0.005 0.015,0 c 0.0588,0.005 0.11625,0.0125 0.18,0.0137 l 0.01,0.002 0.0138,0 1.82,-0.1 z"
         style="fill:#00fff2;fill-opacity:1;fill-rule:evenodd;stroke:none"
         id="path4365"
         inkscape:connector-curvature="0" />
      <path
         d="m 43.28291,493.74086 6.98625,0 c 1.85875,0.0725 3.5975,1.90875 2.2325,4.20875 l -5.27125,8.88124 c -3.12625,-1.44874 -5.29875,-4.61748 -5.29875,-8.3025 0,-1.76 0.4925,-3.40125 1.35125,-4.7875 m -19.9975,18.10125 -8.27375,0 c -1.7,-0.0163 -2.295,-2.24874 -1.15125,-3.58375 l 1.74625,-2.0075 14.95375,0 c -2.69375,1.6725 -5.2,3.66375 -7.275,5.59125 m 18.36,-7.6775 c 1.09125,1.835 2.71,3.31875 4.645,4.2575 l -1.00625,1.71 c -1.27375,1.12 -2.5725,1.6825 -4.3275,1.71 l -14.23625,0 c 4.83625,-4.37874 11.58625,-7.24374 14.925,-7.6775 m -9.8825,-17.40999 c 2.56625,0 4.645,2.08 4.645,4.64999 0,2.5675 -2.07875,4.645 -4.645,4.645 -2.56625,0 -4.6475,-2.0775 -4.6475,-4.645 0,-2.57 2.08125,-4.64999 4.6475,-4.64999 m 0,-1.2975 c 3.32625,0 6.01125,2.69875 6.01125,6.00874 0,3.82875 -3.38375,5.5725 -6.0425,7.57501 -2.60875,-2.055 -5.98125,-3.7975 -5.98125,-7.57501 0,-3.30999 2.69625,-6.00874 6.0125,-6.00874 m 6.895,8.28375 2.525,0 c -0.7025,1.43625 -1.09875,3.065 -1.09875,4.7875 0,1.26875 0.215,2.48875 0.61,3.61875 -2.1,0.3075 -4.26375,1.04 -6.38,2.04125 l -16.915,0 8.045,-9.245 c 1.385,2.3625 4.06,3.915 6.28125,5.66 2.62375,-1.9725 5.85375,-3.74626 6.9325,-6.8625"
         style="fill:#00fff2;fill-opacity:1;fill-rule:evenodd;stroke:none"
         id="path4369"
         inkscape:connector-curvature="0" />
      <path
         d="m 19.264455,424.22598 27.73125,0 0,12.91376 -2.805,0 0,-10.25125 -7.69125,0 0,10.25125 -17.235,0 0,-12.91376 z m 27.73125,-8.44875 0,5.74 -27.73125,0 0,-5.74 2.27375,0 0,2.14375 c 0,0.82875 0.88625,1.5125 1.71375,1.525 0.0437,0.006 0.085,0.01 0.125,0.01 l 19.41125,0 c 0.0663,0 0.1225,-0.005 0.18375,-0.0188 0.79,-0.0788 1.58625,-0.73248 1.58625,-1.51625 l 0,-2.14374 2.4375,0 z m -24.91875,11.2025 11.7375,0 0,7.1575 -11.7375,0 0,-7.1575 z m 27.6225,11.3275 0,-24.2125 c 0,-0.76 -0.6175,-1.0225 -1.2625,-1.0225 l -3.87875,0 0,-1.19875 c 0,-0.83625 -0.9075,-1.52875 -1.75125,-1.52875 l -0.53625,0 -0.0613,0 -18.32375,0 -0.0575,0 -0.55,0 c -0.83,0 -1.74,0.69001 -1.74,1.52875 l 0,1.19875 -3.645,0 c -0.90125,0 -1.33125,0.8575 -1.33125,1.78125 l 0,23.50125 0,0.32125 c 0,0.55875 0.50625,1.16625 1.12875,1.16625 l 30.88875,0 c 0.62,0 1.12,-0.6025 1.12,-1.16625 l 0,-0.36875 z"
         style="fill:#00fff2;fill-opacity:1;fill-rule:evenodd;stroke:none"
         id="path4373"
         inkscape:connector-curvature="0" />
      <path
         d="m 25.223229,586.9683 c -2.00625,0 -3.65625,-1.6425 -3.65625,-3.66125 l 0,-12.065 11.56625,-6.09875 11.62375,6.1275 0,12.03625 c 0,2.01875 -1.64875,3.66125 -3.66625,3.66125 l -3.98625,0 0,-12.625 -7.78625,0 0,12.625 -4.095,0 z m -8.73125,-16.505 -0.5125,-0.975 c -0.44875,-0.83375 -0.11375,-1.87875 0.7175,-2.31625 4.65,-2.45625 10.96875,-5.7875 15.62875,-8.245 0.25375,-0.1325 0.52625,-0.195 0.7975,-0.195 l 0.02,0 c 0.2725,0 0.54,0.0625 0.79375,0.195 4.65375,2.4575 10.9725,5.78875 15.63375,8.245 0.82625,0.4375 1.155,1.4825 0.71625,2.31625 l -0.51625,0.975 c -0.445,0.83375 -1.4875,1.15875 -2.31875,0.71875 l -14.31875,-7.55625 -14.32375,7.55625 c -0.8375,0.44 -1.87875,0.115 -2.3175,-0.71875"
         style="fill:#00fff2;fill-opacity:1;fill-rule:evenodd;stroke:none"
         id="path4377"
         inkscape:connector-curvature="0" />
      <path
         sodipodi:nodetypes="cssccccccscccssccccsccccccsccccscccssccscsssccccccccsccsccccscc"
         d="m 20.44468,653.29689 -3.5775,0 c -0.72125,0 -1.3125,0.7825 -1.3125,1.49875 l 0,0.47 0,1.48375 1.3125,0 3.535,0 10.74,0 0,-1.48375 0,-0.47 c 0,-0.685 0.5525,-1.445 1.24125,-1.49875 z m 3.07125,-3.415 -1.37625,0 c -0.715,0 -1.30625,0.78375 -1.30625,1.49625 l 0,0.46125 0,0.71375 15.58625,0 0,-0.71375 0,-0.46125 c 0,-0.67375 0.5175,-1.3975 1.175,-1.4875 l -14.07875,0 z m 6.13,-3.42625 -3.1,0 -0.035,0 c -0.6975,0.0163 -1.27375,0.77875 -1.27375,1.48625 l 0,0.47 0,0.73625 15.5925,0 0,-0.73625 0,-0.47 c 0,-0.7075 0.57125,-1.47 1.27625,-1.48625 z m 18.65375,10.20875 1.5775,0 c 0.39125,0 0.8225,-0.32125 0.8225,-0.72 l 0,-13.66125 0.007,0 0,-9.62625 c 0,-0.05 -0.004,-0.10625 -0.0112,-0.15625 -0.07,-0.67375 -0.63125,-1.35 -1.305,-1.35 l -13.66,0 c -0.70875,0 -1.30375,0.77125 -1.30375,1.48875 l 0,0.46875 0,0.0488 0,9.12625 2.39875,0 0,-5.96375 3.7875,0 0,5.96375 6.86125,0 0,13.66125 c 0,0.37375 0.42875,0.72 0.825,0.72 m -17.42375,-13.6375 c -0.68125,0.0613 -1.23,0.80375 -1.23,1.49 l 0,0.47 0,0.72375 15.595,0 0,-0.72375 0,-0.47 c 0,-0.68625 0.54125,-1.42875 1.2225,-1.49 z"
         style="fill:#00fff2;fill-opacity:1;fill-rule:evenodd;stroke:none"
         id="path4381"
         inkscape:connector-curvature="0" />
      <path
         id="path4529"
         d="m 33.130705,700.46767 c -9.58,0 -17.375,7.79375 -17.375,17.375 0,7.50125 4.78375,14.14 11.90625,16.5 l 0.0937,0.0312 0.0625,0.0937 5.3125,6.5 5.28125,-6.5 0.0625,-0.0937 0.125,-0.0312 c 7.11875,-2.36 11.90625,-8.99875 11.90625,-16.5 0,-9.58125 -7.795,-17.375 -17.375,-17.375 z m 0,5.28125 c 6.35193,0 11.5,5.14807 11.5,11.5 0,6.35193 -5.14807,11.5 -11.5,11.5 -6.35193,0 -11.5,-5.14807 -11.5,-11.5 0,-6.35193 5.14807,-11.5 11.5,-11.5 z"
         style="fill:#00fff2;fill-opacity:1;fill-rule:nonzero;stroke:none"
         inkscape:connector-curvature="0" />
      <g
         style="fill:#00fff2;fill-opacity:1"
         transform="matrix(1.25,0,0,-1.25,43.86568,879.83072)"
         id="g5219">
        <path
           inkscape:connector-curvature="0"
           id="path5221"
           style="fill:#00fff2;fill-opacity:1;fill-rule:evenodd;stroke:none"
           d="M 0,0 -8.51,4.6 -17.014,0 0,0 z M 2.635,10.625 -6.416,5.731 2.635,0.84 l 0,9.785 z m -20.447,1.269 0,6.941 5.366,0 c 0.473,0.344 0.99,0.613 1.555,0.822 0.802,0.301 1.636,0.433 2.494,0.433 0.777,0 1.558,-0.099 2.307,-0.353 0.633,-0.202 1.218,-0.5 1.736,-0.902 l 5.006,0 0,-7.019 -9.162,-4.952 -9.302,5.03 z m -1.126,8.945 c -0.415,0 -0.876,-0.345 -0.876,-0.76 l 0,-5.633 -1.538,-1.215 c -0.222,-0.18 -0.449,-0.343 -0.449,-0.665 l 0,-13.807 c 0,-0.363 0.389,-0.759 0.755,-0.759 l 24.814,0 c 0.721,0 0.857,0.486 0.857,1.113 l 0,12.855 c 0,0.439 -0.04,0.989 -0.388,1.263 l -1.591,1.26 0,5.588 c 0,0.415 -0.443,0.76 -0.868,0.76 l -0.065,0 -0.201,0 -6.901,0 -2.761,2.182 c -0.117,0.085 -0.259,0.115 -0.409,0.097 -0.143,0.018 -0.287,-0.012 -0.4,-0.097 l -2.767,-2.182 -7.212,0 z m 11.304,-5.612 c -0.105,0.088 -0.221,0.158 -0.345,0.205 -0.112,0.034 -0.254,0.055 -0.43,0.055 -0.256,0 -0.487,-0.055 -0.685,-0.189 -0.217,-0.118 -0.401,-0.285 -0.547,-0.475 -0.161,-0.195 -0.269,-0.403 -0.367,-0.635 -0.078,-0.238 -0.122,-0.454 -0.122,-0.67 0,-0.239 0.059,-0.449 0.174,-0.61 0.109,-0.161 0.299,-0.237 0.584,-0.237 0.124,0 0.248,0.028 0.383,0.099 0.124,0.06 0.249,0.153 0.374,0.259 0.125,0.118 0.24,0.245 0.367,0.387 0.112,0.147 0.216,0.307 0.303,0.469 l 0.311,1.342 z m 0.789,1.451 0.861,0 -0.605,-3.057 c -0.024,-0.08 -0.032,-0.162 -0.046,-0.237 -0.004,-0.069 -0.004,-0.133 -0.004,-0.194 0,-0.195 0.026,-0.317 0.099,-0.399 0.09,-0.074 0.212,-0.12 0.358,-0.12 0.222,0 0.419,0.046 0.624,0.137 0.207,0.084 0.397,0.218 0.557,0.393 0.17,0.183 0.289,0.405 0.395,0.69 0.102,0.268 0.149,0.609 0.149,0.998 0,0.577 -0.105,1.089 -0.32,1.495 -0.204,0.413 -0.49,0.756 -0.85,1.02 -0.357,0.269 -0.778,0.457 -1.261,0.587 -0.493,0.126 -1.001,0.174 -1.547,0.174 -0.636,0 -1.232,-0.107 -1.782,-0.327 -0.554,-0.225 -1.032,-0.532 -1.441,-0.905 -0.401,-0.368 -0.719,-0.819 -0.947,-1.343 -0.225,-0.517 -0.34,-1.074 -0.34,-1.674 0,-0.59 0.097,-1.131 0.28,-1.602 0.203,-0.482 0.472,-0.881 0.839,-1.24 0.373,-0.335 0.83,-0.598 1.384,-0.787 0.555,-0.184 1.187,-0.274 1.898,-0.274 0.236,0 0.493,0.019 0.805,0.077 0.293,0.056 0.569,0.142 0.816,0.252 L -6.54,9.146 C -6.882,9.001 -7.231,8.882 -7.574,8.818 -7.919,8.761 -8.315,8.724 -8.781,8.724 c -0.815,0 -1.555,0.115 -2.225,0.34 -0.697,0.222 -1.268,0.566 -1.768,1.007 -0.486,0.428 -0.875,0.976 -1.144,1.605 -0.267,0.638 -0.401,1.369 -0.401,2.185 0,0.844 0.158,1.605 0.467,2.296 0.308,0.691 0.738,1.277 1.285,1.759 0.538,0.486 1.171,0.873 1.901,1.138 0.71,0.267 1.47,0.401 2.269,0.401 0.763,0 1.456,-0.107 2.103,-0.31 0.644,-0.225 1.2,-0.519 1.688,-0.926 0.462,-0.4 0.83,-0.876 1.108,-1.448 0.273,-0.556 0.401,-1.192 0.401,-1.882 0,-0.469 -0.087,-0.939 -0.275,-1.36 -0.184,-0.417 -0.445,-0.782 -0.758,-1.094 -0.313,-0.305 -0.688,-0.557 -1.137,-0.733 -0.428,-0.201 -0.898,-0.269 -1.372,-0.269 -0.22,0 -0.408,0.005 -0.592,0.049 -0.168,0.043 -0.318,0.118 -0.449,0.22 -0.116,0.1 -0.209,0.233 -0.265,0.406 -0.059,0.178 -0.064,0.385 -0.034,0.637 l -0.044,0 c -0.131,-0.179 -0.27,-0.347 -0.412,-0.51 -0.144,-0.146 -0.305,-0.3 -0.473,-0.412 -0.163,-0.121 -0.363,-0.223 -0.571,-0.298 -0.207,-0.062 -0.431,-0.092 -0.697,-0.092 -0.188,0 -0.381,0.03 -0.549,0.104 -0.181,0.083 -0.341,0.195 -0.469,0.341 -0.127,0.152 -0.232,0.331 -0.305,0.538 -0.081,0.198 -0.106,0.428 -0.106,0.674 0,0.451 0.077,0.898 0.231,1.333 0.177,0.431 0.386,0.829 0.667,1.167 0.284,0.343 0.618,0.625 0.992,0.836 0.367,0.22 0.766,0.322 1.19,0.322 0.292,0 0.536,-0.053 0.729,-0.126 0.191,-0.08 0.383,-0.184 0.546,-0.317 l 0.405,0.373 z m -12.969,-15.922 9.207,4.975 -9.207,4.979 0,-9.954 z" />
      </g>
      <g
         style="fill:#00fff2;fill-opacity:1"
         transform="matrix(1.25,0,0,-1.25,34.729981,955.06986)"
         id="g5223">
        <path
           inkscape:connector-curvature="0"
           id="path5225"
           style="fill:#00fff2;fill-opacity:1;fill-rule:evenodd;stroke:none"
           d="m 0,0 0.23,0.134 c 0.354,0.2 0.566,0.71 0.364,1.066 -1.142,1.976 -9.212,15.948 -10.353,17.924 -0.202,0.355 -0.754,0.431 -1.103,0.217 l -0.229,-0.134 c -0.356,-0.196 -0.571,-0.71 -0.365,-1.064 C -10.318,16.166 -2.249,2.194 -1.107,0.221 -0.9,-0.139 -0.354,-0.196 0,0 M 8.685,5.362 C 7.488,4.355 5.649,3.711 3.084,3.413 2.105,3.302 1.186,3.281 0.349,3.353 L -2.294,7.932 C -1.311,7.251 0.302,7 2.582,7.259 4.923,7.531 6.711,8.107 7.572,8.998 L 8.685,5.362 z m -18.884,17.524 0.238,0 c 0.368,0 0.758,0.292 0.758,0.66 l 0,2.477 c 0,0.365 -0.394,0.665 -0.758,0.665 l -0.238,0 c -0.364,0 -0.759,-0.3 -0.759,-0.665 l 0,-2.477 c 0,-0.368 0.391,-0.66 0.759,-0.66 m -8.959,-5.154 0,-0.238 c 0,-0.364 0.299,-0.765 0.667,-0.765 l 2.473,0 c 0.365,0 0.668,0.401 0.668,0.765 l 0,0.238 c 0,0.368 -0.299,0.765 -0.668,0.765 l -2.473,0 c -0.372,0 -0.667,-0.397 -0.667,-0.765 m 2.796,6.323 -0.164,-0.166 c -0.26,-0.251 -0.329,-0.753 -0.07,-1.003 1.449,-1.451 0.304,-0.302 1.751,-1.756 0.257,-0.264 0.75,-0.189 1.012,0.066 l 0.166,0.172 c 0.258,0.256 0.328,0.756 0.067,1.003 -1.447,1.454 -0.302,0.305 -1.75,1.759 -0.257,0.26 -0.755,0.188 -1.012,-0.075 m 2.529,-10.03 0.166,-0.171 c 0.261,-0.258 0.323,-0.749 0.067,-1.01 -1.447,-1.443 -0.302,-0.302 -1.75,-1.748 -0.257,-0.263 -0.755,-0.188 -1.012,0.067 l -0.164,0.162 c -0.26,0.263 -0.329,0.757 -0.07,1.016 1.449,1.455 0.304,0.305 1.751,1.76 0.257,0.254 0.75,0.182 1.012,-0.076 m 10.035,10.03 0.167,-0.166 c 0.256,-0.251 0.325,-0.753 0.067,-1.003 -1.45,-1.451 -0.304,-0.302 -1.752,-1.756 -0.257,-0.264 -0.75,-0.189 -1.011,0.066 l -0.166,0.172 c -0.258,0.256 -0.328,0.756 -0.069,1.003 1.449,1.454 0.304,0.305 1.751,1.759 0.257,0.26 0.755,0.188 1.013,-0.075 M 9.328,8.45 c 4.137,-0.594 7.004,-2.16 7.254,-4.279 0.385,-3.327 -5.771,-6.767 -13.749,-7.687 -7.979,-0.927 -14.763,1.017 -15.149,4.332 -0.254,2.193 2.335,4.428 6.421,5.967 l -6.311,10.932 c -0.455,0.782 -0.073,1.806 0.682,2.244 l 0.226,0.139 c 0.754,0.425 1.839,0.238 2.289,-0.535 l 5.615,-9.729 7.699,14.794 c 0.187,0.358 0.801,0.313 1.119,0.067 L 5.637,24.537 C 5.959,24.284 6.042,23.793 5.854,23.429 L 4.881,21.556 9.328,8.45 z" />
      </g>
    </g>
    <g
       id="g3085">
      <rect
         ry="8.1352673"
         rx="7.3409047"
         y="317.20181"
         x="351.09534"
         height="65.082138"
         width="317.49411"
         id="rect3013"
         style="fill:none;stroke:#00ffff;stroke-width:0.96598577" />
      <rect
         style="fill:none;stroke:#00ffff;stroke-width:0.96598577;filter:url(#filter3075)"
         id="rect3073"
         width="317.49411"
         height="65.082138"
         x="348.15625"
         y="313.28305"
         rx="7.3409047"
         ry="8.1352673" />
    </g>
    <g
       id="g3089"
       transform="translate(0,74)">
      <rect
         style="fill:none;stroke:#00ffff;stroke-width:0.96598577"
         id="rect3091"
         width="317.49411"
         height="65.082138"
         x="351.09534"
         y="317.20181"
         rx="7.3409047"
         ry="8.1352673" />
      <rect
         ry="8.1352673"
         rx="7.3409047"
         y="313.28305"
         x="348.15625"
         height="65.082138"
         width="317.49411"
         id="rect3093"
         style="fill:none;stroke:#00ffff;stroke-width:0.96598577;filter:url(#filter3075)" />
    </g>
    <g
       transform="translate(0,148)"
       id="g3095">
      <rect
         ry="8.1352673"
         rx="7.3409047"
         y="317.20181"
         x="351.09534"
         height="65.082138"
         width="317.49411"
         id="rect3097"
         style="fill:none;stroke:#00ffff;stroke-width:0.96598577" />
      <rect
         style="fill:none;stroke:#00ffff;stroke-width:0.96598577;filter:url(#filter3075)"
         id="rect3099"
         width="317.49411"
         height="65.082138"
         x="348.15625"
         y="313.28305"
         rx="7.3409047"
         ry="8.1352673" />
    </g>
    <g
       id="g3101"
       transform="translate(0,222)">
      <rect
         style="fill:none;stroke:#00ffff;stroke-width:0.96598577"
         id="rect3103"
         width="317.49411"
         height="65.082138"
         x="351.09534"
         y="317.20181"
         rx="7.3409047"
         ry="8.1352673" />
      <rect
         ry="8.1352673"
         rx="7.3409047"
         y="313.28305"
         x="348.15625"
         height="65.082138"
         width="317.49411"
         id="rect3105"
         style="fill:none;stroke:#00ffff;stroke-width:0.96598577;filter:url(#filter3075)" />
    </g>
    <g
       transform="translate(0,296)"
       id="g3107">
      <rect
         ry="8.1352673"
         rx="7.3409047"
         y="317.20181"
         x="351.09534"
         height="65.082138"
         width="317.49411"
         id="rect3109"
         style="fill:none;stroke:#00ffff;stroke-width:0.96598577" />
      <rect
         style="fill:none;stroke:#00ffff;stroke-width:0.96598577;filter:url(#filter3075)"
         id="rect3111"
         width="317.49411"
         height="65.082138"
         x="348.15625"
         y="313.28305"
         rx="7.3409047"
         ry="8.1352673" />
    </g>
    <g
       id="g3113"
       transform="translate(0,370)">
      <rect
         style="fill:none;stroke:#00ffff;stroke-width:0.96598577"
         id="rect3115"
         width="317.49411"
         height="65.082138"
         x="351.09534"
         y="317.20181"
         rx="7.3409047"
         ry="8.1352673" />
      <rect
         ry="8.1352673"
         rx="7.3409047"
         y="313.28305"
         x="348.15625"
         height="65.082138"
         width="317.49411"
         id="rect3117"
         style="fill:none;stroke:#00ffff;stroke-width:0.96598577;filter:url(#filter3075)" />
    </g>
    <g
       transform="translate(0,444)"
       id="g3119">
      <rect
         ry="8.1352673"
         rx="7.3409047"
         y="317.20181"
         x="351.09534"
         height="65.082138"
         width="317.49411"
         id="rect3121"
         style="fill:none;stroke:#00ffff;stroke-width:0.96598577" />
      <rect
         style="fill:none;stroke:#00ffff;stroke-width:0.96598577;filter:url(#filter3075)"
         id="rect3123"
         width="317.49411"
         height="65.082138"
         x="348.15625"
         y="313.28305"
         rx="7.3409047"
         ry="8.1352673" />
    </g>
    <g
       id="g3125"
       transform="translate(0,518)">
      <rect
         style="fill:none;stroke:#00ffff;stroke-width:0.96598577"
         id="rect3127"
         width="317.49411"
         height="65.082138"
         x="351.09534"
         y="317.20181"
         rx="7.3409047"
         ry="8.1352673" />
      <rect
         ry="8.1352673"
         rx="7.3409047"
         y="313.28305"
         x="348.15625"
         height="65.082138"
         width="317.49411"
         id="rect3129"
         style="fill:none;stroke:#00ffff;stroke-width:0.96598577;filter:url(#filter3075)" />
    </g>
    <g
       transform="translate(0,592)"
       id="g3131">
      <rect
         ry="8.1352673"
         rx="7.3409047"
         y="317.20181"
         x="351.09534"
         height="65.082138"
         width="317.49411"
         id="rect3133"
         style="fill:none;stroke:#00ffff;stroke-width:0.96598577" />
      <rect
         style="fill:none;stroke:#00ffff;stroke-width:0.96598577;filter:url(#filter3075)"
         id="rect3135"
         width="317.49411"
         height="65.082138"
         x="348.15625"
         y="313.28305"
         rx="7.3409047"
         ry="8.1352673" />
    </g>
    <g
       id="g3149"
       transform="translate(346,0)">
      <path
         inkscape:connector-curvature="0"
         id="path3151"
         style="fill:#00fff2;fill-opacity:1;fill-rule:evenodd;stroke:none"
         d="m 33.568805,352.35148 0,0 0.0138,0 0.015,-0.002 c 0.0588,-0.001 0.1125,-0.009 0.175,-0.0138 l 0.015,0 0.0387,-0.005 c 0.0525,-0.005 0.10625,-0.005 0.165,-0.01 l 0.0587,-0.009 0.0188,-0.002 0.0888,-0.01 0.0238,0 0.0188,-0.001 0.0888,-0.0125 0.0187,-0.002 0.0238,-0.006 0.0213,-0.001 0.0188,-0.002 0.0238,0 0.0188,-0.006 0.1025,-0.015 -0.9475,0.1 z m -0.66125,0.004 0.004,0 c 0.0775,0.008 0.15125,0.008 0.21875,0.008 0.0775,0 0.15,0 0.21875,-0.008 l 0.005,0 -0.44625,0 z m 5.77875,0.8275 c 5.59625,2.0925 9.59625,7.24 9.71375,13.30375 l -2.4775,0 c -0.22375,-5.50755 -4.2625,-10.07755 -9.665,-11.3713 l -2.42625,3.1475 2.55375,8.22375 -6.2175,0.0188 2.45625,-8.2425 -2.365,-3.21 c -5.5275,1.21 -9.6875,5.8375 -9.91125,11.43375 l -2.48625,0 c 0.12125,-6.06375 4.1175,-11.21125 9.7175,-13.30375 -3.29,-1.90875 -5.49875,-5.47625 -5.49875,-9.55375 0,-6.10375 4.9525,-11.05 11.05,-11.05 6.1075,0 11.05125,4.94625 11.05125,11.05 0,4.0775 -2.21,7.64125 -5.495,9.55375 m -4.17,-0.93125 0,0 c 4.17,-0.6675 7.34875,-4.275 7.34875,-8.6225 0,-1.3975 -0.3325,-2.7175 -0.915,-3.8925 -2.19625,-2.22875 -4.8425,-0.3975 -5.86375,0.1525 -0.56,0.36875 -1.23625,0.5825 -1.96125,0.5825 -0.7925,0 -1.5275,-0.2575 -2.11625,-0.69375 -1.14875,-0.6525 -3.655,-2.165 -5.7325,0.0337 -0.56,1.15375 -0.87,2.45 -0.87,3.8175 0,4.3475 3.17625,7.955 7.3375,8.6225 l 0.1075,0.015 0.0238,0.006 0.0187,0 0.0213,0.002 0.0238,0.001 0.0188,0.006 0.0188,0.002 0.0838,0.0125 0.0287,0.001 0.0138,0 0.0263,0.002 0.0238,0.002 0.0437,0.007 0.0775,0.009 c 0.0538,0.005 0.1125,0.005 0.16625,0.01 l 0.0375,0.005 0.015,0 c 0.0588,0.005 0.11625,0.0125 0.18,0.0137 l 0.01,0.002 0.0138,0 1.82,-0.1 z" />
      <path
         inkscape:connector-curvature="0"
         id="path3153"
         style="fill:#00fff2;fill-opacity:1;fill-rule:evenodd;stroke:none"
         d="m 43.28291,493.74086 6.98625,0 c 1.85875,0.0725 3.5975,1.90875 2.2325,4.20875 l -5.27125,8.88124 c -3.12625,-1.44874 -5.29875,-4.61748 -5.29875,-8.3025 0,-1.76 0.4925,-3.40125 1.35125,-4.7875 m -19.9975,18.10125 -8.27375,0 c -1.7,-0.0163 -2.295,-2.24874 -1.15125,-3.58375 l 1.74625,-2.0075 14.95375,0 c -2.69375,1.6725 -5.2,3.66375 -7.275,5.59125 m 18.36,-7.6775 c 1.09125,1.835 2.71,3.31875 4.645,4.2575 l -1.00625,1.71 c -1.27375,1.12 -2.5725,1.6825 -4.3275,1.71 l -14.23625,0 c 4.83625,-4.37874 11.58625,-7.24374 14.925,-7.6775 m -9.8825,-17.40999 c 2.56625,0 4.645,2.08 4.645,4.64999 0,2.5675 -2.07875,4.645 -4.645,4.645 -2.56625,0 -4.6475,-2.0775 -4.6475,-4.645 0,-2.57 2.08125,-4.64999 4.6475,-4.64999 m 0,-1.2975 c 3.32625,0 6.01125,2.69875 6.01125,6.00874 0,3.82875 -3.38375,5.5725 -6.0425,7.57501 -2.60875,-2.055 -5.98125,-3.7975 -5.98125,-7.57501 0,-3.30999 2.69625,-6.00874 6.0125,-6.00874 m 6.895,8.28375 2.525,0 c -0.7025,1.43625 -1.09875,3.065 -1.09875,4.7875 0,1.26875 0.215,2.48875 0.61,3.61875 -2.1,0.3075 -4.26375,1.04 -6.38,2.04125 l -16.915,0 8.045,-9.245 c 1.385,2.3625 4.06,3.915 6.28125,5.66 2.62375,-1.9725 5.85375,-3.74626 6.9325,-6.8625" />
      <path
         inkscape:connector-curvature="0"
         id="path3155"
         style="fill:#00fff2;fill-opacity:1;fill-rule:evenodd;stroke:none"
         d="m 19.264455,424.22598 27.73125,0 0,12.91376 -2.805,0 0,-10.25125 -7.69125,0 0,10.25125 -17.235,0 0,-12.91376 z m 27.73125,-8.44875 0,5.74 -27.73125,0 0,-5.74 2.27375,0 0,2.14375 c 0,0.82875 0.88625,1.5125 1.71375,1.525 0.0437,0.006 0.085,0.01 0.125,0.01 l 19.41125,0 c 0.0663,0 0.1225,-0.005 0.18375,-0.0188 0.79,-0.0788 1.58625,-0.73248 1.58625,-1.51625 l 0,-2.14374 2.4375,0 z m -24.91875,11.2025 11.7375,0 0,7.1575 -11.7375,0 0,-7.1575 z m 27.6225,11.3275 0,-24.2125 c 0,-0.76 -0.6175,-1.0225 -1.2625,-1.0225 l -3.87875,0 0,-1.19875 c 0,-0.83625 -0.9075,-1.52875 -1.75125,-1.52875 l -0.53625,0 -0.0613,0 -18.32375,0 -0.0575,0 -0.55,0 c -0.83,0 -1.74,0.69001 -1.74,1.52875 l 0,1.19875 -3.645,0 c -0.90125,0 -1.33125,0.8575 -1.33125,1.78125 l 0,23.50125 0,0.32125 c 0,0.55875 0.50625,1.16625 1.12875,1.16625 l 30.88875,0 c 0.62,0 1.12,-0.6025 1.12,-1.16625 l 0,-0.36875 z" />
      <path
         inkscape:connector-curvature="0"
         id="path3157"
         style="fill:#00fff2;fill-opacity:1;fill-rule:evenodd;stroke:none"
         d="m 25.223229,586.9683 c -2.00625,0 -3.65625,-1.6425 -3.65625,-3.66125 l 0,-12.065 11.56625,-6.09875 11.62375,6.1275 0,12.03625 c 0,2.01875 -1.64875,3.66125 -3.66625,3.66125 l -3.98625,0 0,-12.625 -7.78625,0 0,12.625 -4.095,0 z m -8.73125,-16.505 -0.5125,-0.975 c -0.44875,-0.83375 -0.11375,-1.87875 0.7175,-2.31625 4.65,-2.45625 10.96875,-5.7875 15.62875,-8.245 0.25375,-0.1325 0.52625,-0.195 0.7975,-0.195 l 0.02,0 c 0.2725,0 0.54,0.0625 0.79375,0.195 4.65375,2.4575 10.9725,5.78875 15.63375,8.245 0.82625,0.4375 1.155,1.4825 0.71625,2.31625 l -0.51625,0.975 c -0.445,0.83375 -1.4875,1.15875 -2.31875,0.71875 l -14.31875,-7.55625 -14.32375,7.55625 c -0.8375,0.44 -1.87875,0.115 -2.3175,-0.71875" />
      <path
         inkscape:connector-curvature="0"
         id="path3159"
         style="fill:#00fff2;fill-opacity:1;fill-rule:evenodd;stroke:none"
         d="m 20.44468,653.29689 -3.5775,0 c -0.72125,0 -1.3125,0.7825 -1.3125,1.49875 l 0,0.47 0,1.48375 1.3125,0 3.535,0 10.74,0 0,-1.48375 0,-0.47 c 0,-0.685 0.5525,-1.445 1.24125,-1.49875 z m 3.07125,-3.415 -1.37625,0 c -0.715,0 -1.30625,0.78375 -1.30625,1.49625 l 0,0.46125 0,0.71375 15.58625,0 0,-0.71375 0,-0.46125 c 0,-0.67375 0.5175,-1.3975 1.175,-1.4875 l -14.07875,0 z m 6.13,-3.42625 -3.1,0 -0.035,0 c -0.6975,0.0163 -1.27375,0.77875 -1.27375,1.48625 l 0,0.47 0,0.73625 15.5925,0 0,-0.73625 0,-0.47 c 0,-0.7075 0.57125,-1.47 1.27625,-1.48625 z m 18.65375,10.20875 1.5775,0 c 0.39125,0 0.8225,-0.32125 0.8225,-0.72 l 0,-13.66125 0.007,0 0,-9.62625 c 0,-0.05 -0.004,-0.10625 -0.0112,-0.15625 -0.07,-0.67375 -0.63125,-1.35 -1.305,-1.35 l -13.66,0 c -0.70875,0 -1.30375,0.77125 -1.30375,1.48875 l 0,0.46875 0,0.0488 0,9.12625 2.39875,0 0,-5.96375 3.7875,0 0,5.96375 6.86125,0 0,13.66125 c 0,0.37375 0.42875,0.72 0.825,0.72 m -17.42375,-13.6375 c -0.68125,0.0613 -1.23,0.80375 -1.23,1.49 l 0,0.47 0,0.72375 15.595,0 0,-0.72375 0,-0.47 c 0,-0.68625 0.54125,-1.42875 1.2225,-1.49 z"
         sodipodi:nodetypes="cssccccccscccssccccsccccccsccccscccssccscsssccccccccsccsccccscc" />
      <path
         inkscape:connector-curvature="0"
         style="fill:#00fff2;fill-opacity:1;fill-rule:nonzero;stroke:none"
         d="m 33.130705,700.46767 c -9.58,0 -17.375,7.79375 -17.375,17.375 0,7.50125 4.78375,14.14 11.90625,16.5 l 0.0937,0.0312 0.0625,0.0937 5.3125,6.5 5.28125,-6.5 0.0625,-0.0937 0.125,-0.0312 c 7.11875,-2.36 11.90625,-8.99875 11.90625,-16.5 0,-9.58125 -7.795,-17.375 -17.375,-17.375 z m 0,5.28125 c 6.35193,0 11.5,5.14807 11.5,11.5 0,6.35193 -5.14807,11.5 -11.5,11.5 -6.35193,0 -11.5,-5.14807 -11.5,-11.5 0,-6.35193 5.14807,-11.5 11.5,-11.5 z"
         id="path3161" />
      <g
         id="g3163"
         transform="matrix(1.25,0,0,-1.25,43.86568,879.83072)"
         style="fill:#00fff2;fill-opacity:1">
        <path
           d="M 0,0 -8.51,4.6 -17.014,0 0,0 z M 2.635,10.625 -6.416,5.731 2.635,0.84 l 0,9.785 z m -20.447,1.269 0,6.941 5.366,0 c 0.473,0.344 0.99,0.613 1.555,0.822 0.802,0.301 1.636,0.433 2.494,0.433 0.777,0 1.558,-0.099 2.307,-0.353 0.633,-0.202 1.218,-0.5 1.736,-0.902 l 5.006,0 0,-7.019 -9.162,-4.952 -9.302,5.03 z m -1.126,8.945 c -0.415,0 -0.876,-0.345 -0.876,-0.76 l 0,-5.633 -1.538,-1.215 c -0.222,-0.18 -0.449,-0.343 -0.449,-0.665 l 0,-13.807 c 0,-0.363 0.389,-0.759 0.755,-0.759 l 24.814,0 c 0.721,0 0.857,0.486 0.857,1.113 l 0,12.855 c 0,0.439 -0.04,0.989 -0.388,1.263 l -1.591,1.26 0,5.588 c 0,0.415 -0.443,0.76 -0.868,0.76 l -0.065,0 -0.201,0 -6.901,0 -2.761,2.182 c -0.117,0.085 -0.259,0.115 -0.409,0.097 -0.143,0.018 -0.287,-0.012 -0.4,-0.097 l -2.767,-2.182 -7.212,0 z m 11.304,-5.612 c -0.105,0.088 -0.221,0.158 -0.345,0.205 -0.112,0.034 -0.254,0.055 -0.43,0.055 -0.256,0 -0.487,-0.055 -0.685,-0.189 -0.217,-0.118 -0.401,-0.285 -0.547,-0.475 -0.161,-0.195 -0.269,-0.403 -0.367,-0.635 -0.078,-0.238 -0.122,-0.454 -0.122,-0.67 0,-0.239 0.059,-0.449 0.174,-0.61 0.109,-0.161 0.299,-0.237 0.584,-0.237 0.124,0 0.248,0.028 0.383,0.099 0.124,0.06 0.249,0.153 0.374,0.259 0.125,0.118 0.24,0.245 0.367,0.387 0.112,0.147 0.216,0.307 0.303,0.469 l 0.311,1.342 z m 0.789,1.451 0.861,0 -0.605,-3.057 c -0.024,-0.08 -0.032,-0.162 -0.046,-0.237 -0.004,-0.069 -0.004,-0.133 -0.004,-0.194 0,-0.195 0.026,-0.317 0.099,-0.399 0.09,-0.074 0.212,-0.12 0.358,-0.12 0.222,0 0.419,0.046 0.624,0.137 0.207,0.084 0.397,0.218 0.557,0.393 0.17,0.183 0.289,0.405 0.395,0.69 0.102,0.268 0.149,0.609 0.149,0.998 0,0.577 -0.105,1.089 -0.32,1.495 -0.204,0.413 -0.49,0.756 -0.85,1.02 -0.357,0.269 -0.778,0.457 -1.261,0.587 -0.493,0.126 -1.001,0.174 -1.547,0.174 -0.636,0 -1.232,-0.107 -1.782,-0.327 -0.554,-0.225 -1.032,-0.532 -1.441,-0.905 -0.401,-0.368 -0.719,-0.819 -0.947,-1.343 -0.225,-0.517 -0.34,-1.074 -0.34,-1.674 0,-0.59 0.097,-1.131 0.28,-1.602 0.203,-0.482 0.472,-0.881 0.839,-1.24 0.373,-0.335 0.83,-0.598 1.384,-0.787 0.555,-0.184 1.187,-0.274 1.898,-0.274 0.236,0 0.493,0.019 0.805,0.077 0.293,0.056 0.569,0.142 0.816,0.252 L -6.54,9.146 C -6.882,9.001 -7.231,8.882 -7.574,8.818 -7.919,8.761 -8.315,8.724 -8.781,8.724 c -0.815,0 -1.555,0.115 -2.225,0.34 -0.697,0.222 -1.268,0.566 -1.768,1.007 -0.486,0.428 -0.875,0.976 -1.144,1.605 -0.267,0.638 -0.401,1.369 -0.401,2.185 0,0.844 0.158,1.605 0.467,2.296 0.308,0.691 0.738,1.277 1.285,1.759 0.538,0.486 1.171,0.873 1.901,1.138 0.71,0.267 1.47,0.401 2.269,0.401 0.763,0 1.456,-0.107 2.103,-0.31 0.644,-0.225 1.2,-0.519 1.688,-0.926 0.462,-0.4 0.83,-0.876 1.108,-1.448 0.273,-0.556 0.401,-1.192 0.401,-1.882 0,-0.469 -0.087,-0.939 -0.275,-1.36 -0.184,-0.417 -0.445,-0.782 -0.758,-1.094 -0.313,-0.305 -0.688,-0.557 -1.137,-0.733 -0.428,-0.201 -0.898,-0.269 -1.372,-0.269 -0.22,0 -0.408,0.005 -0.592,0.049 -0.168,0.043 -0.318,0.118 -0.449,0.22 -0.116,0.1 -0.209,0.233 -0.265,0.406 -0.059,0.178 -0.064,0.385 -0.034,0.637 l -0.044,0 c -0.131,-0.179 -0.27,-0.347 -0.412,-0.51 -0.144,-0.146 -0.305,-0.3 -0.473,-0.412 -0.163,-0.121 -0.363,-0.223 -0.571,-0.298 -0.207,-0.062 -0.431,-0.092 -0.697,-0.092 -0.188,0 -0.381,0.03 -0.549,0.104 -0.181,0.083 -0.341,0.195 -0.469,0.341 -0.127,0.152 -0.232,0.331 -0.305,0.538 -0.081,0.198 -0.106,0.428 -0.106,0.674 0,0.451 0.077,0.898 0.231,1.333 0.177,0.431 0.386,0.829 0.667,1.167 0.284,0.343 0.618,0.625 0.992,0.836 0.367,0.22 0.766,0.322 1.19,0.322 0.292,0 0.536,-0.053 0.729,-0.126 0.191,-0.08 0.383,-0.184 0.546,-0.317 l 0.405,0.373 z m -12.969,-15.922 9.207,4.975 -9.207,4.979 0,-9.954 z"
           style="fill:#00fff2;fill-opacity:1;fill-rule:evenodd;stroke:none"
           id="path3165"
           inkscape:connector-curvature="0" />
      </g>
      <g
         id="g3167"
         transform="matrix(1.25,0,0,-1.25,34.729981,955.06986)"
         style="fill:#00fff2;fill-opacity:1">
        <path
           d="m 0,0 0.23,0.134 c 0.354,0.2 0.566,0.71 0.364,1.066 -1.142,1.976 -9.212,15.948 -10.353,17.924 -0.202,0.355 -0.754,0.431 -1.103,0.217 l -0.229,-0.134 c -0.356,-0.196 -0.571,-0.71 -0.365,-1.064 C -10.318,16.166 -2.249,2.194 -1.107,0.221 -0.9,-0.139 -0.354,-0.196 0,0 M 8.685,5.362 C 7.488,4.355 5.649,3.711 3.084,3.413 2.105,3.302 1.186,3.281 0.349,3.353 L -2.294,7.932 C -1.311,7.251 0.302,7 2.582,7.259 4.923,7.531 6.711,8.107 7.572,8.998 L 8.685,5.362 z m -18.884,17.524 0.238,0 c 0.368,0 0.758,0.292 0.758,0.66 l 0,2.477 c 0,0.365 -0.394,0.665 -0.758,0.665 l -0.238,0 c -0.364,0 -0.759,-0.3 -0.759,-0.665 l 0,-2.477 c 0,-0.368 0.391,-0.66 0.759,-0.66 m -8.959,-5.154 0,-0.238 c 0,-0.364 0.299,-0.765 0.667,-0.765 l 2.473,0 c 0.365,0 0.668,0.401 0.668,0.765 l 0,0.238 c 0,0.368 -0.299,0.765 -0.668,0.765 l -2.473,0 c -0.372,0 -0.667,-0.397 -0.667,-0.765 m 2.796,6.323 -0.164,-0.166 c -0.26,-0.251 -0.329,-0.753 -0.07,-1.003 1.449,-1.451 0.304,-0.302 1.751,-1.756 0.257,-0.264 0.75,-0.189 1.012,0.066 l 0.166,0.172 c 0.258,0.256 0.328,0.756 0.067,1.003 -1.447,1.454 -0.302,0.305 -1.75,1.759 -0.257,0.26 -0.755,0.188 -1.012,-0.075 m 2.529,-10.03 0.166,-0.171 c 0.261,-0.258 0.323,-0.749 0.067,-1.01 -1.447,-1.443 -0.302,-0.302 -1.75,-1.748 -0.257,-0.263 -0.755,-0.188 -1.012,0.067 l -0.164,0.162 c -0.26,0.263 -0.329,0.757 -0.07,1.016 1.449,1.455 0.304,0.305 1.751,1.76 0.257,0.254 0.75,0.182 1.012,-0.076 m 10.035,10.03 0.167,-0.166 c 0.256,-0.251 0.325,-0.753 0.067,-1.003 -1.45,-1.451 -0.304,-0.302 -1.752,-1.756 -0.257,-0.264 -0.75,-0.189 -1.011,0.066 l -0.166,0.172 c -0.258,0.256 -0.328,0.756 -0.069,1.003 1.449,1.454 0.304,0.305 1.751,1.759 0.257,0.26 0.755,0.188 1.013,-0.075 M 9.328,8.45 c 4.137,-0.594 7.004,-2.16 7.254,-4.279 0.385,-3.327 -5.771,-6.767 -13.749,-7.687 -7.979,-0.927 -14.763,1.017 -15.149,4.332 -0.254,2.193 2.335,4.428 6.421,5.967 l -6.311,10.932 c -0.455,0.782 -0.073,1.806 0.682,2.244 l 0.226,0.139 c 0.754,0.425 1.839,0.238 2.289,-0.535 l 5.615,-9.729 7.699,14.794 c 0.187,0.358 0.801,0.313 1.119,0.067 L 5.637,24.537 C 5.959,24.284 6.042,23.793 5.854,23.429 L 4.881,21.556 9.328,8.45 z"
           style="fill:#00fff2;fill-opacity:1;fill-rule:evenodd;stroke:none"
           id="path3169"
           inkscape:connector-curvature="0" />
      </g>
    </g>
    <g
       transform="translate(692,0)"
       id="g3171"
       style="fill:#00c3ad;fill-opacity:1">
      <path
         d="m 33.568805,352.35148 0,0 0.0138,0 0.015,-0.002 c 0.0588,-0.001 0.1125,-0.009 0.175,-0.0138 l 0.015,0 0.0387,-0.005 c 0.0525,-0.005 0.10625,-0.005 0.165,-0.01 l 0.0587,-0.009 0.0188,-0.002 0.0888,-0.01 0.0238,0 0.0188,-0.001 0.0888,-0.0125 0.0187,-0.002 0.0238,-0.006 0.0213,-0.001 0.0188,-0.002 0.0238,0 0.0188,-0.006 0.1025,-0.015 -0.9475,0.1 z m -0.66125,0.004 0.004,0 c 0.0775,0.008 0.15125,0.008 0.21875,0.008 0.0775,0 0.15,0 0.21875,-0.008 l 0.005,0 -0.44625,0 z m 5.77875,0.8275 c 5.59625,2.0925 9.59625,7.24 9.71375,13.30375 l -2.4775,0 c -0.22375,-5.50755 -4.2625,-10.07755 -9.665,-11.3713 l -2.42625,3.1475 2.55375,8.22375 -6.2175,0.0188 2.45625,-8.2425 -2.365,-3.21 c -5.5275,1.21 -9.6875,5.8375 -9.91125,11.43375 l -2.48625,0 c 0.12125,-6.06375 4.1175,-11.21125 9.7175,-13.30375 -3.29,-1.90875 -5.49875,-5.47625 -5.49875,-9.55375 0,-6.10375 4.9525,-11.05 11.05,-11.05 6.1075,0 11.05125,4.94625 11.05125,11.05 0,4.0775 -2.21,7.64125 -5.495,9.55375 m -4.17,-0.93125 0,0 c 4.17,-0.6675 7.34875,-4.275 7.34875,-8.6225 0,-1.3975 -0.3325,-2.7175 -0.915,-3.8925 -2.19625,-2.22875 -4.8425,-0.3975 -5.86375,0.1525 -0.56,0.36875 -1.23625,0.5825 -1.96125,0.5825 -0.7925,0 -1.5275,-0.2575 -2.11625,-0.69375 -1.14875,-0.6525 -3.655,-2.165 -5.7325,0.0337 -0.56,1.15375 -0.87,2.45 -0.87,3.8175 0,4.3475 3.17625,7.955 7.3375,8.6225 l 0.1075,0.015 0.0238,0.006 0.0187,0 0.0213,0.002 0.0238,0.001 0.0188,0.006 0.0188,0.002 0.0838,0.0125 0.0287,0.001 0.0138,0 0.0263,0.002 0.0238,0.002 0.0437,0.007 0.0775,0.009 c 0.0538,0.005 0.1125,0.005 0.16625,0.01 l 0.0375,0.005 0.015,0 c 0.0588,0.005 0.11625,0.0125 0.18,0.0137 l 0.01,0.002 0.0138,0 1.82,-0.1 z"
         style="fill:#00c3ad;fill-opacity:1;fill-rule:evenodd;stroke:none"
         id="path3173"
         inkscape:connector-curvature="0" />
      <path
         d="m 43.28291,493.74086 6.98625,0 c 1.85875,0.0725 3.5975,1.90875 2.2325,4.20875 l -5.27125,8.88124 c -3.12625,-1.44874 -5.29875,-4.61748 -5.29875,-8.3025 0,-1.76 0.4925,-3.40125 1.35125,-4.7875 m -19.9975,18.10125 -8.27375,0 c -1.7,-0.0163 -2.295,-2.24874 -1.15125,-3.58375 l 1.74625,-2.0075 14.95375,0 c -2.69375,1.6725 -5.2,3.66375 -7.275,5.59125 m 18.36,-7.6775 c 1.09125,1.835 2.71,3.31875 4.645,4.2575 l -1.00625,1.71 c -1.27375,1.12 -2.5725,1.6825 -4.3275,1.71 l -14.23625,0 c 4.83625,-4.37874 11.58625,-7.24374 14.925,-7.6775 m -9.8825,-17.40999 c 2.56625,0 4.645,2.08 4.645,4.64999 0,2.5675 -2.07875,4.645 -4.645,4.645 -2.56625,0 -4.6475,-2.0775 -4.6475,-4.645 0,-2.57 2.08125,-4.64999 4.6475,-4.64999 m 0,-1.2975 c 3.32625,0 6.01125,2.69875 6.01125,6.00874 0,3.82875 -3.38375,5.5725 -6.0425,7.57501 -2.60875,-2.055 -5.98125,-3.7975 -5.98125,-7.57501 0,-3.30999 2.69625,-6.00874 6.0125,-6.00874 m 6.895,8.28375 2.525,0 c -0.7025,1.43625 -1.09875,3.065 -1.09875,4.7875 0,1.26875 0.215,2.48875 0.61,3.61875 -2.1,0.3075 -4.26375,1.04 -6.38,2.04125 l -16.915,0 8.045,-9.245 c 1.385,2.3625 4.06,3.915 6.28125,5.66 2.62375,-1.9725 5.85375,-3.74626 6.9325,-6.8625"
         style="fill:#00c3ad;fill-opacity:1;fill-rule:evenodd;stroke:none"
         id="path3175"
         inkscape:connector-curvature="0" />
      <path
         d="m 19.264455,424.22598 27.73125,0 0,12.91376 -2.805,0 0,-10.25125 -7.69125,0 0,10.25125 -17.235,0 0,-12.91376 z m 27.73125,-8.44875 0,5.74 -27.73125,0 0,-5.74 2.27375,0 0,2.14375 c 0,0.82875 0.88625,1.5125 1.71375,1.525 0.0437,0.006 0.085,0.01 0.125,0.01 l 19.41125,0 c 0.0663,0 0.1225,-0.005 0.18375,-0.0188 0.79,-0.0788 1.58625,-0.73248 1.58625,-1.51625 l 0,-2.14374 2.4375,0 z m -24.91875,11.2025 11.7375,0 0,7.1575 -11.7375,0 0,-7.1575 z m 27.6225,11.3275 0,-24.2125 c 0,-0.76 -0.6175,-1.0225 -1.2625,-1.0225 l -3.87875,0 0,-1.19875 c 0,-0.83625 -0.9075,-1.52875 -1.75125,-1.52875 l -0.53625,0 -0.0613,0 -18.32375,0 -0.0575,0 -0.55,0 c -0.83,0 -1.74,0.69001 -1.74,1.52875 l 0,1.19875 -3.645,0 c -0.90125,0 -1.33125,0.8575 -1.33125,1.78125 l 0,23.50125 0,0.32125 c 0,0.55875 0.50625,1.16625 1.12875,1.16625 l 30.88875,0 c 0.62,0 1.12,-0.6025 1.12,-1.16625 l 0,-0.36875 z"
         style="fill:#00c3ad;fill-opacity:1;fill-rule:evenodd;stroke:none"
         id="path3177"
         inkscape:connector-curvature="0" />
      <path
         d="m 25.223229,586.9683 c -2.00625,0 -3.65625,-1.6425 -3.65625,-3.66125 l 0,-12.065 11.56625,-6.09875 11.62375,6.1275 0,12.03625 c 0,2.01875 -1.64875,3.66125 -3.66625,3.66125 l -3.98625,0 0,-12.625 -7.78625,0 0,12.625 -4.095,0 z m -8.73125,-16.505 -0.5125,-0.975 c -0.44875,-0.83375 -0.11375,-1.87875 0.7175,-2.31625 4.65,-2.45625 10.96875,-5.7875 15.62875,-8.245 0.25375,-0.1325 0.52625,-0.195 0.7975,-0.195 l 0.02,0 c 0.2725,0 0.54,0.0625 0.79375,0.195 4.65375,2.4575 10.9725,5.78875 15.63375,8.245 0.82625,0.4375 1.155,1.4825 0.71625,2.31625 l -0.51625,0.975 c -0.445,0.83375 -1.4875,1.15875 -2.31875,0.71875 l -14.31875,-7.55625 -14.32375,7.55625 c -0.8375,0.44 -1.87875,0.115 -2.3175,-0.71875"
         style="fill:#00c3ad;fill-opacity:1;fill-rule:evenodd;stroke:none"
         id="path3179"
         inkscape:connector-curvature="0" />
      <path
         sodipodi:nodetypes="cssccccccscccssccccsccccccsccccscccssccscsssccccccccsccsccccscc"
         d="m 20.44468,653.29689 -3.5775,0 c -0.72125,0 -1.3125,0.7825 -1.3125,1.49875 l 0,0.47 0,1.48375 1.3125,0 3.535,0 10.74,0 0,-1.48375 0,-0.47 c 0,-0.685 0.5525,-1.445 1.24125,-1.49875 z m 3.07125,-3.415 -1.37625,0 c -0.715,0 -1.30625,0.78375 -1.30625,1.49625 l 0,0.46125 0,0.71375 15.58625,0 0,-0.71375 0,-0.46125 c 0,-0.67375 0.5175,-1.3975 1.175,-1.4875 l -14.07875,0 z m 6.13,-3.42625 -3.1,0 -0.035,0 c -0.6975,0.0163 -1.27375,0.77875 -1.27375,1.48625 l 0,0.47 0,0.73625 15.5925,0 0,-0.73625 0,-0.47 c 0,-0.7075 0.57125,-1.47 1.27625,-1.48625 z m 18.65375,10.20875 1.5775,0 c 0.39125,0 0.8225,-0.32125 0.8225,-0.72 l 0,-13.66125 0.007,0 0,-9.62625 c 0,-0.05 -0.004,-0.10625 -0.0112,-0.15625 -0.07,-0.67375 -0.63125,-1.35 -1.305,-1.35 l -13.66,0 c -0.70875,0 -1.30375,0.77125 -1.30375,1.48875 l 0,0.46875 0,0.0488 0,9.12625 2.39875,0 0,-5.96375 3.7875,0 0,5.96375 6.86125,0 0,13.66125 c 0,0.37375 0.42875,0.72 0.825,0.72 m -17.42375,-13.6375 c -0.68125,0.0613 -1.23,0.80375 -1.23,1.49 l 0,0.47 0,0.72375 15.595,0 0,-0.72375 0,-0.47 c 0,-0.68625 0.54125,-1.42875 1.2225,-1.49 z"
         style="fill:#00c3ad;fill-opacity:1;fill-rule:evenodd;stroke:none"
         id="path3181"
         inkscape:connector-curvature="0" />
      <path
         id="path3183"
         d="m 33.130705,700.46767 c -9.58,0 -17.375,7.79375 -17.375,17.375 0,7.50125 4.78375,14.14 11.90625,16.5 l 0.0937,0.0312 0.0625,0.0937 5.3125,6.5 5.28125,-6.5 0.0625,-0.0937 0.125,-0.0312 c 7.11875,-2.36 11.90625,-8.99875 11.90625,-16.5 0,-9.58125 -7.795,-17.375 -17.375,-17.375 z m 0,5.28125 c 6.35193,0 11.5,5.14807 11.5,11.5 0,6.35193 -5.14807,11.5 -11.5,11.5 -6.35193,0 -11.5,-5.14807 -11.5,-11.5 0,-6.35193 5.14807,-11.5 11.5,-11.5 z"
         style="fill:#00c3ad;fill-opacity:1;fill-rule:nonzero;stroke:none"
         inkscape:connector-curvature="0" />
      <g
         style="fill:#00c3ad;fill-opacity:1"
         transform="matrix(1.25,0,0,-1.25,43.86568,879.83072)"
         id="g3185">
        <path
           inkscape:connector-curvature="0"
           id="path3187"
           style="fill:#00c3ad;fill-opacity:1;fill-rule:evenodd;stroke:none"
           d="M 0,0 -8.51,4.6 -17.014,0 0,0 z M 2.635,10.625 -6.416,5.731 2.635,0.84 l 0,9.785 z m -20.447,1.269 0,6.941 5.366,0 c 0.473,0.344 0.99,0.613 1.555,0.822 0.802,0.301 1.636,0.433 2.494,0.433 0.777,0 1.558,-0.099 2.307,-0.353 0.633,-0.202 1.218,-0.5 1.736,-0.902 l 5.006,0 0,-7.019 -9.162,-4.952 -9.302,5.03 z m -1.126,8.945 c -0.415,0 -0.876,-0.345 -0.876,-0.76 l 0,-5.633 -1.538,-1.215 c -0.222,-0.18 -0.449,-0.343 -0.449,-0.665 l 0,-13.807 c 0,-0.363 0.389,-0.759 0.755,-0.759 l 24.814,0 c 0.721,0 0.857,0.486 0.857,1.113 l 0,12.855 c 0,0.439 -0.04,0.989 -0.388,1.263 l -1.591,1.26 0,5.588 c 0,0.415 -0.443,0.76 -0.868,0.76 l -0.065,0 -0.201,0 -6.901,0 -2.761,2.182 c -0.117,0.085 -0.259,0.115 -0.409,0.097 -0.143,0.018 -0.287,-0.012 -0.4,-0.097 l -2.767,-2.182 -7.212,0 z m 11.304,-5.612 c -0.105,0.088 -0.221,0.158 -0.345,0.205 -0.112,0.034 -0.254,0.055 -0.43,0.055 -0.256,0 -0.487,-0.055 -0.685,-0.189 -0.217,-0.118 -0.401,-0.285 -0.547,-0.475 -0.161,-0.195 -0.269,-0.403 -0.367,-0.635 -0.078,-0.238 -0.122,-0.454 -0.122,-0.67 0,-0.239 0.059,-0.449 0.174,-0.61 0.109,-0.161 0.299,-0.237 0.584,-0.237 0.124,0 0.248,0.028 0.383,0.099 0.124,0.06 0.249,0.153 0.374,0.259 0.125,0.118 0.24,0.245 0.367,0.387 0.112,0.147 0.216,0.307 0.303,0.469 l 0.311,1.342 z m 0.789,1.451 0.861,0 -0.605,-3.057 c -0.024,-0.08 -0.032,-0.162 -0.046,-0.237 -0.004,-0.069 -0.004,-0.133 -0.004,-0.194 0,-0.195 0.026,-0.317 0.099,-0.399 0.09,-0.074 0.212,-0.12 0.358,-0.12 0.222,0 0.419,0.046 0.624,0.137 0.207,0.084 0.397,0.218 0.557,0.393 0.17,0.183 0.289,0.405 0.395,0.69 0.102,0.268 0.149,0.609 0.149,0.998 0,0.577 -0.105,1.089 -0.32,1.495 -0.204,0.413 -0.49,0.756 -0.85,1.02 -0.357,0.269 -0.778,0.457 -1.261,0.587 -0.493,0.126 -1.001,0.174 -1.547,0.174 -0.636,0 -1.232,-0.107 -1.782,-0.327 -0.554,-0.225 -1.032,-0.532 -1.441,-0.905 -0.401,-0.368 -0.719,-0.819 -0.947,-1.343 -0.225,-0.517 -0.34,-1.074 -0.34,-1.674 0,-0.59 0.097,-1.131 0.28,-1.602 0.203,-0.482 0.472,-0.881 0.839,-1.24 0.373,-0.335 0.83,-0.598 1.384,-0.787 0.555,-0.184 1.187,-0.274 1.898,-0.274 0.236,0 0.493,0.019 0.805,0.077 0.293,0.056 0.569,0.142 0.816,0.252 L -6.54,9.146 C -6.882,9.001 -7.231,8.882 -7.574,8.818 -7.919,8.761 -8.315,8.724 -8.781,8.724 c -0.815,0 -1.555,0.115 -2.225,0.34 -0.697,0.222 -1.268,0.566 -1.768,1.007 -0.486,0.428 -0.875,0.976 -1.144,1.605 -0.267,0.638 -0.401,1.369 -0.401,2.185 0,0.844 0.158,1.605 0.467,2.296 0.308,0.691 0.738,1.277 1.285,1.759 0.538,0.486 1.171,0.873 1.901,1.138 0.71,0.267 1.47,0.401 2.269,0.401 0.763,0 1.456,-0.107 2.103,-0.31 0.644,-0.225 1.2,-0.519 1.688,-0.926 0.462,-0.4 0.83,-0.876 1.108,-1.448 0.273,-0.556 0.401,-1.192 0.401,-1.882 0,-0.469 -0.087,-0.939 -0.275,-1.36 -0.184,-0.417 -0.445,-0.782 -0.758,-1.094 -0.313,-0.305 -0.688,-0.557 -1.137,-0.733 -0.428,-0.201 -0.898,-0.269 -1.372,-0.269 -0.22,0 -0.408,0.005 -0.592,0.049 -0.168,0.043 -0.318,0.118 -0.449,0.22 -0.116,0.1 -0.209,0.233 -0.265,0.406 -0.059,0.178 -0.064,0.385 -0.034,0.637 l -0.044,0 c -0.131,-0.179 -0.27,-0.347 -0.412,-0.51 -0.144,-0.146 -0.305,-0.3 -0.473,-0.412 -0.163,-0.121 -0.363,-0.223 -0.571,-0.298 -0.207,-0.062 -0.431,-0.092 -0.697,-0.092 -0.188,0 -0.381,0.03 -0.549,0.104 -0.181,0.083 -0.341,0.195 -0.469,0.341 -0.127,0.152 -0.232,0.331 -0.305,0.538 -0.081,0.198 -0.106,0.428 -0.106,0.674 0,0.451 0.077,0.898 0.231,1.333 0.177,0.431 0.386,0.829 0.667,1.167 0.284,0.343 0.618,0.625 0.992,0.836 0.367,0.22 0.766,0.322 1.19,0.322 0.292,0 0.536,-0.053 0.729,-0.126 0.191,-0.08 0.383,-0.184 0.546,-0.317 l 0.405,0.373 z m -12.969,-15.922 9.207,4.975 -9.207,4.979 0,-9.954 z" />
      </g>
      <g
         style="fill:#00c3ad;fill-opacity:1"
         transform="matrix(1.25,0,0,-1.25,34.729981,955.06986)"
         id="g3189">
        <path
           inkscape:connector-curvature="0"
           id="path3191"
           style="fill:#00c3ad;fill-opacity:1;fill-rule:evenodd;stroke:none"
           d="m 0,0 0.23,0.134 c 0.354,0.2 0.566,0.71 0.364,1.066 -1.142,1.976 -9.212,15.948 -10.353,17.924 -0.202,0.355 -0.754,0.431 -1.103,0.217 l -0.229,-0.134 c -0.356,-0.196 -0.571,-0.71 -0.365,-1.064 C -10.318,16.166 -2.249,2.194 -1.107,0.221 -0.9,-0.139 -0.354,-0.196 0,0 M 8.685,5.362 C 7.488,4.355 5.649,3.711 3.084,3.413 2.105,3.302 1.186,3.281 0.349,3.353 L -2.294,7.932 C -1.311,7.251 0.302,7 2.582,7.259 4.923,7.531 6.711,8.107 7.572,8.998 L 8.685,5.362 z m -18.884,17.524 0.238,0 c 0.368,0 0.758,0.292 0.758,0.66 l 0,2.477 c 0,0.365 -0.394,0.665 -0.758,0.665 l -0.238,0 c -0.364,0 -0.759,-0.3 -0.759,-0.665 l 0,-2.477 c 0,-0.368 0.391,-0.66 0.759,-0.66 m -8.959,-5.154 0,-0.238 c 0,-0.364 0.299,-0.765 0.667,-0.765 l 2.473,0 c 0.365,0 0.668,0.401 0.668,0.765 l 0,0.238 c 0,0.368 -0.299,0.765 -0.668,0.765 l -2.473,0 c -0.372,0 -0.667,-0.397 -0.667,-0.765 m 2.796,6.323 -0.164,-0.166 c -0.26,-0.251 -0.329,-0.753 -0.07,-1.003 1.449,-1.451 0.304,-0.302 1.751,-1.756 0.257,-0.264 0.75,-0.189 1.012,0.066 l 0.166,0.172 c 0.258,0.256 0.328,0.756 0.067,1.003 -1.447,1.454 -0.302,0.305 -1.75,1.759 -0.257,0.26 -0.755,0.188 -1.012,-0.075 m 2.529,-10.03 0.166,-0.171 c 0.261,-0.258 0.323,-0.749 0.067,-1.01 -1.447,-1.443 -0.302,-0.302 -1.75,-1.748 -0.257,-0.263 -0.755,-0.188 -1.012,0.067 l -0.164,0.162 c -0.26,0.263 -0.329,0.757 -0.07,1.016 1.449,1.455 0.304,0.305 1.751,1.76 0.257,0.254 0.75,0.182 1.012,-0.076 m 10.035,10.03 0.167,-0.166 c 0.256,-0.251 0.325,-0.753 0.067,-1.003 -1.45,-1.451 -0.304,-0.302 -1.752,-1.756 -0.257,-0.264 -0.75,-0.189 -1.011,0.066 l -0.166,0.172 c -0.258,0.256 -0.328,0.756 -0.069,1.003 1.449,1.454 0.304,0.305 1.751,1.759 0.257,0.26 0.755,0.188 1.013,-0.075 M 9.328,8.45 c 4.137,-0.594 7.004,-2.16 7.254,-4.279 0.385,-3.327 -5.771,-6.767 -13.749,-7.687 -7.979,-0.927 -14.763,1.017 -15.149,4.332 -0.254,2.193 2.335,4.428 6.421,5.967 l -6.311,10.932 c -0.455,0.782 -0.073,1.806 0.682,2.244 l 0.226,0.139 c 0.754,0.425 1.839,0.238 2.289,-0.535 l 5.615,-9.729 7.699,14.794 c 0.187,0.358 0.801,0.313 1.119,0.067 L 5.637,24.537 C 5.959,24.284 6.042,23.793 5.854,23.429 L 4.881,21.556 9.328,8.45 z" />
      </g>
    </g>
    <g
       transform="translate(1038,0)"
       id="g9741">
      <path
         d="m 33.568805,352.35148 0,0 0.0138,0 0.015,-0.002 c 0.0588,-0.001 0.1125,-0.009 0.175,-0.0138 l 0.015,0 0.0387,-0.005 c 0.0525,-0.005 0.10625,-0.005 0.165,-0.01 l 0.0587,-0.009 0.0188,-0.002 0.0888,-0.01 0.0238,0 0.0188,-0.001 0.0888,-0.0125 0.0187,-0.002 0.0238,-0.006 0.0213,-0.001 0.0188,-0.002 0.0238,0 0.0188,-0.006 0.1025,-0.015 -0.9475,0.1 z m -0.66125,0.004 0.004,0 c 0.0775,0.008 0.15125,0.008 0.21875,0.008 0.0775,0 0.15,0 0.21875,-0.008 l 0.005,0 -0.44625,0 z m 5.77875,0.8275 c 5.59625,2.0925 9.59625,7.24 9.71375,13.30375 l -2.4775,0 c -0.22375,-5.50755 -4.2625,-10.07755 -9.665,-11.3713 l -2.42625,3.1475 2.55375,8.22375 -6.2175,0.0188 2.45625,-8.2425 -2.365,-3.21 c -5.5275,1.21 -9.6875,5.8375 -9.91125,11.43375 l -2.48625,0 c 0.12125,-6.06375 4.1175,-11.21125 9.7175,-13.30375 -3.29,-1.90875 -5.49875,-5.47625 -5.49875,-9.55375 0,-6.10375 4.9525,-11.05 11.05,-11.05 6.1075,0 11.05125,4.94625 11.05125,11.05 0,4.0775 -2.21,7.64125 -5.495,9.55375 m -4.17,-0.93125 0,0 c 4.17,-0.6675 7.34875,-4.275 7.34875,-8.6225 0,-1.3975 -0.3325,-2.7175 -0.915,-3.8925 -2.19625,-2.22875 -4.8425,-0.3975 -5.86375,0.1525 -0.56,0.36875 -1.23625,0.5825 -1.96125,0.5825 -0.7925,0 -1.5275,-0.2575 -2.11625,-0.69375 -1.14875,-0.6525 -3.655,-2.165 -5.7325,0.0337 -0.56,1.15375 -0.87,2.45 -0.87,3.8175 0,4.3475 3.17625,7.955 7.3375,8.6225 l 0.1075,0.015 0.0238,0.006 0.0187,0 0.0213,0.002 0.0238,0.001 0.0188,0.006 0.0188,0.002 0.0838,0.0125 0.0287,0.001 0.0138,0 0.0263,0.002 0.0238,0.002 0.0437,0.007 0.0775,0.009 c 0.0538,0.005 0.1125,0.005 0.16625,0.01 l 0.0375,0.005 0.015,0 c 0.0588,0.005 0.11625,0.0125 0.18,0.0137 l 0.01,0.002 0.0138,0 1.82,-0.1 z"
         style="fill:#00fff2;fill-opacity:1;fill-rule:evenodd;stroke:none"
         id="path9743"
         inkscape:connector-curvature="0" />
      <path
         d="m 43.28291,493.74086 6.98625,0 c 1.85875,0.0725 3.5975,1.90875 2.2325,4.20875 l -5.27125,8.88124 c -3.12625,-1.44874 -5.29875,-4.61748 -5.29875,-8.3025 0,-1.76 0.4925,-3.40125 1.35125,-4.7875 m -19.9975,18.10125 -8.27375,0 c -1.7,-0.0163 -2.295,-2.24874 -1.15125,-3.58375 l 1.74625,-2.0075 14.95375,0 c -2.69375,1.6725 -5.2,3.66375 -7.275,5.59125 m 18.36,-7.6775 c 1.09125,1.835 2.71,3.31875 4.645,4.2575 l -1.00625,1.71 c -1.27375,1.12 -2.5725,1.6825 -4.3275,1.71 l -14.23625,0 c 4.83625,-4.37874 11.58625,-7.24374 14.925,-7.6775 m -9.8825,-17.40999 c 2.56625,0 4.645,2.08 4.645,4.64999 0,2.5675 -2.07875,4.645 -4.645,4.645 -2.56625,0 -4.6475,-2.0775 -4.6475,-4.645 0,-2.57 2.08125,-4.64999 4.6475,-4.64999 m 0,-1.2975 c 3.32625,0 6.01125,2.69875 6.01125,6.00874 0,3.82875 -3.38375,5.5725 -6.0425,7.57501 -2.60875,-2.055 -5.98125,-3.7975 -5.98125,-7.57501 0,-3.30999 2.69625,-6.00874 6.0125,-6.00874 m 6.895,8.28375 2.525,0 c -0.7025,1.43625 -1.09875,3.065 -1.09875,4.7875 0,1.26875 0.215,2.48875 0.61,3.61875 -2.1,0.3075 -4.26375,1.04 -6.38,2.04125 l -16.915,0 8.045,-9.245 c 1.385,2.3625 4.06,3.915 6.28125,5.66 2.62375,-1.9725 5.85375,-3.74626 6.9325,-6.8625"
         style="fill:#00fff2;fill-opacity:1;fill-rule:evenodd;stroke:none"
         id="path9745"
         inkscape:connector-curvature="0" />
      <path
         d="m 19.264455,424.22598 27.73125,0 0,12.91376 -2.805,0 0,-10.25125 -7.69125,0 0,10.25125 -17.235,0 0,-12.91376 z m 27.73125,-8.44875 0,5.74 -27.73125,0 0,-5.74 2.27375,0 0,2.14375 c 0,0.82875 0.88625,1.5125 1.71375,1.525 0.0437,0.006 0.085,0.01 0.125,0.01 l 19.41125,0 c 0.0663,0 0.1225,-0.005 0.18375,-0.0188 0.79,-0.0788 1.58625,-0.73248 1.58625,-1.51625 l 0,-2.14374 2.4375,0 z m -24.91875,11.2025 11.7375,0 0,7.1575 -11.7375,0 0,-7.1575 z m 27.6225,11.3275 0,-24.2125 c 0,-0.76 -0.6175,-1.0225 -1.2625,-1.0225 l -3.87875,0 0,-1.19875 c 0,-0.83625 -0.9075,-1.52875 -1.75125,-1.52875 l -0.53625,0 -0.0613,0 -18.32375,0 -0.0575,0 -0.55,0 c -0.83,0 -1.74,0.69001 -1.74,1.52875 l 0,1.19875 -3.645,0 c -0.90125,0 -1.33125,0.8575 -1.33125,1.78125 l 0,23.50125 0,0.32125 c 0,0.55875 0.50625,1.16625 1.12875,1.16625 l 30.88875,0 c 0.62,0 1.12,-0.6025 1.12,-1.16625 l 0,-0.36875 z"
         style="fill:#00fff2;fill-opacity:1;fill-rule:evenodd;stroke:none"
         id="path9747"
         inkscape:connector-curvature="0" />
      <path
         d="m 25.223229,586.9683 c -2.00625,0 -3.65625,-1.6425 -3.65625,-3.66125 l 0,-12.065 11.56625,-6.09875 11.62375,6.1275 0,12.03625 c 0,2.01875 -1.64875,3.66125 -3.66625,3.66125 l -3.98625,0 0,-12.625 -7.78625,0 0,12.625 -4.095,0 z m -8.73125,-16.505 -0.5125,-0.975 c -0.44875,-0.83375 -0.11375,-1.87875 0.7175,-2.31625 4.65,-2.45625 10.96875,-5.7875 15.62875,-8.245 0.25375,-0.1325 0.52625,-0.195 0.7975,-0.195 l 0.02,0 c 0.2725,0 0.54,0.0625 0.79375,0.195 4.65375,2.4575 10.9725,5.78875 15.63375,8.245 0.82625,0.4375 1.155,1.4825 0.71625,2.31625 l -0.51625,0.975 c -0.445,0.83375 -1.4875,1.15875 -2.31875,0.71875 l -14.31875,-7.55625 -14.32375,7.55625 c -0.8375,0.44 -1.87875,0.115 -2.3175,-0.71875"
         style="fill:#00fff2;fill-opacity:1;fill-rule:evenodd;stroke:none"
         id="path9749"
         inkscape:connector-curvature="0" />
      <path
         sodipodi:nodetypes="cssccccccscccssccccsccccccsccccscccssccscsssccccccccsccsccccscc"
         d="m 20.44468,653.29689 -3.5775,0 c -0.72125,0 -1.3125,0.7825 -1.3125,1.49875 l 0,0.47 0,1.48375 1.3125,0 3.535,0 10.74,0 0,-1.48375 0,-0.47 c 0,-0.685 0.5525,-1.445 1.24125,-1.49875 z m 3.07125,-3.415 -1.37625,0 c -0.715,0 -1.30625,0.78375 -1.30625,1.49625 l 0,0.46125 0,0.71375 15.58625,0 0,-0.71375 0,-0.46125 c 0,-0.67375 0.5175,-1.3975 1.175,-1.4875 l -14.07875,0 z m 6.13,-3.42625 -3.1,0 -0.035,0 c -0.6975,0.0163 -1.27375,0.77875 -1.27375,1.48625 l 0,0.47 0,0.73625 15.5925,0 0,-0.73625 0,-0.47 c 0,-0.7075 0.57125,-1.47 1.27625,-1.48625 z m 18.65375,10.20875 1.5775,0 c 0.39125,0 0.8225,-0.32125 0.8225,-0.72 l 0,-13.66125 0.007,0 0,-9.62625 c 0,-0.05 -0.004,-0.10625 -0.0112,-0.15625 -0.07,-0.67375 -0.63125,-1.35 -1.305,-1.35 l -13.66,0 c -0.70875,0 -1.30375,0.77125 -1.30375,1.48875 l 0,0.46875 0,0.0488 0,9.12625 2.39875,0 0,-5.96375 3.7875,0 0,5.96375 6.86125,0 0,13.66125 c 0,0.37375 0.42875,0.72 0.825,0.72 m -17.42375,-13.6375 c -0.68125,0.0613 -1.23,0.80375 -1.23,1.49 l 0,0.47 0,0.72375 15.595,0 0,-0.72375 0,-0.47 c 0,-0.68625 0.54125,-1.42875 1.2225,-1.49 z"
         style="fill:#00fff2;fill-opacity:1;fill-rule:evenodd;stroke:none"
         id="path9751"
         inkscape:connector-curvature="0" />
      <path
         id="path9753"
         d="m 33.130705,700.46767 c -9.58,0 -17.375,7.79375 -17.375,17.375 0,7.50125 4.78375,14.14 11.90625,16.5 l 0.0937,0.0312 0.0625,0.0937 5.3125,6.5 5.28125,-6.5 0.0625,-0.0937 0.125,-0.0312 c 7.11875,-2.36 11.90625,-8.99875 11.90625,-16.5 0,-9.58125 -7.795,-17.375 -17.375,-17.375 z m 0,5.28125 c 6.35193,0 11.5,5.14807 11.5,11.5 0,6.35193 -5.14807,11.5 -11.5,11.5 -6.35193,0 -11.5,-5.14807 -11.5,-11.5 0,-6.35193 5.14807,-11.5 11.5,-11.5 z"
         style="fill:#00fff2;fill-opacity:1;fill-rule:nonzero;stroke:none"
         inkscape:connector-curvature="0" />
      <g
         style="fill:#00fff2;fill-opacity:1"
         transform="matrix(1.25,0,0,-1.25,43.86568,879.83072)"
         id="g9755">
        <path
           inkscape:connector-curvature="0"
           id="path9757"
           style="fill:#00fff2;fill-opacity:1;fill-rule:evenodd;stroke:none"
           d="M 0,0 -8.51,4.6 -17.014,0 0,0 z M 2.635,10.625 -6.416,5.731 2.635,0.84 l 0,9.785 z m -20.447,1.269 0,6.941 5.366,0 c 0.473,0.344 0.99,0.613 1.555,0.822 0.802,0.301 1.636,0.433 2.494,0.433 0.777,0 1.558,-0.099 2.307,-0.353 0.633,-0.202 1.218,-0.5 1.736,-0.902 l 5.006,0 0,-7.019 -9.162,-4.952 -9.302,5.03 z m -1.126,8.945 c -0.415,0 -0.876,-0.345 -0.876,-0.76 l 0,-5.633 -1.538,-1.215 c -0.222,-0.18 -0.449,-0.343 -0.449,-0.665 l 0,-13.807 c 0,-0.363 0.389,-0.759 0.755,-0.759 l 24.814,0 c 0.721,0 0.857,0.486 0.857,1.113 l 0,12.855 c 0,0.439 -0.04,0.989 -0.388,1.263 l -1.591,1.26 0,5.588 c 0,0.415 -0.443,0.76 -0.868,0.76 l -0.065,0 -0.201,0 -6.901,0 -2.761,2.182 c -0.117,0.085 -0.259,0.115 -0.409,0.097 -0.143,0.018 -0.287,-0.012 -0.4,-0.097 l -2.767,-2.182 -7.212,0 z m 11.304,-5.612 c -0.105,0.088 -0.221,0.158 -0.345,0.205 -0.112,0.034 -0.254,0.055 -0.43,0.055 -0.256,0 -0.487,-0.055 -0.685,-0.189 -0.217,-0.118 -0.401,-0.285 -0.547,-0.475 -0.161,-0.195 -0.269,-0.403 -0.367,-0.635 -0.078,-0.238 -0.122,-0.454 -0.122,-0.67 0,-0.239 0.059,-0.449 0.174,-0.61 0.109,-0.161 0.299,-0.237 0.584,-0.237 0.124,0 0.248,0.028 0.383,0.099 0.124,0.06 0.249,0.153 0.374,0.259 0.125,0.118 0.24,0.245 0.367,0.387 0.112,0.147 0.216,0.307 0.303,0.469 l 0.311,1.342 z m 0.789,1.451 0.861,0 -0.605,-3.057 c -0.024,-0.08 -0.032,-0.162 -0.046,-0.237 -0.004,-0.069 -0.004,-0.133 -0.004,-0.194 0,-0.195 0.026,-0.317 0.099,-0.399 0.09,-0.074 0.212,-0.12 0.358,-0.12 0.222,0 0.419,0.046 0.624,0.137 0.207,0.084 0.397,0.218 0.557,0.393 0.17,0.183 0.289,0.405 0.395,0.69 0.102,0.268 0.149,0.609 0.149,0.998 0,0.577 -0.105,1.089 -0.32,1.495 -0.204,0.413 -0.49,0.756 -0.85,1.02 -0.357,0.269 -0.778,0.457 -1.261,0.587 -0.493,0.126 -1.001,0.174 -1.547,0.174 -0.636,0 -1.232,-0.107 -1.782,-0.327 -0.554,-0.225 -1.032,-0.532 -1.441,-0.905 -0.401,-0.368 -0.719,-0.819 -0.947,-1.343 -0.225,-0.517 -0.34,-1.074 -0.34,-1.674 0,-0.59 0.097,-1.131 0.28,-1.602 0.203,-0.482 0.472,-0.881 0.839,-1.24 0.373,-0.335 0.83,-0.598 1.384,-0.787 0.555,-0.184 1.187,-0.274 1.898,-0.274 0.236,0 0.493,0.019 0.805,0.077 0.293,0.056 0.569,0.142 0.816,0.252 L -6.54,9.146 C -6.882,9.001 -7.231,8.882 -7.574,8.818 -7.919,8.761 -8.315,8.724 -8.781,8.724 c -0.815,0 -1.555,0.115 -2.225,0.34 -0.697,0.222 -1.268,0.566 -1.768,1.007 -0.486,0.428 -0.875,0.976 -1.144,1.605 -0.267,0.638 -0.401,1.369 -0.401,2.185 0,0.844 0.158,1.605 0.467,2.296 0.308,0.691 0.738,1.277 1.285,1.759 0.538,0.486 1.171,0.873 1.901,1.138 0.71,0.267 1.47,0.401 2.269,0.401 0.763,0 1.456,-0.107 2.103,-0.31 0.644,-0.225 1.2,-0.519 1.688,-0.926 0.462,-0.4 0.83,-0.876 1.108,-1.448 0.273,-0.556 0.401,-1.192 0.401,-1.882 0,-0.469 -0.087,-0.939 -0.275,-1.36 -0.184,-0.417 -0.445,-0.782 -0.758,-1.094 -0.313,-0.305 -0.688,-0.557 -1.137,-0.733 -0.428,-0.201 -0.898,-0.269 -1.372,-0.269 -0.22,0 -0.408,0.005 -0.592,0.049 -0.168,0.043 -0.318,0.118 -0.449,0.22 -0.116,0.1 -0.209,0.233 -0.265,0.406 -0.059,0.178 -0.064,0.385 -0.034,0.637 l -0.044,0 c -0.131,-0.179 -0.27,-0.347 -0.412,-0.51 -0.144,-0.146 -0.305,-0.3 -0.473,-0.412 -0.163,-0.121 -0.363,-0.223 -0.571,-0.298 -0.207,-0.062 -0.431,-0.092 -0.697,-0.092 -0.188,0 -0.381,0.03 -0.549,0.104 -0.181,0.083 -0.341,0.195 -0.469,0.341 -0.127,0.152 -0.232,0.331 -0.305,0.538 -0.081,0.198 -0.106,0.428 -0.106,0.674 0,0.451 0.077,0.898 0.231,1.333 0.177,0.431 0.386,0.829 0.667,1.167 0.284,0.343 0.618,0.625 0.992,0.836 0.367,0.22 0.766,0.322 1.19,0.322 0.292,0 0.536,-0.053 0.729,-0.126 0.191,-0.08 0.383,-0.184 0.546,-0.317 l 0.405,0.373 z m -12.969,-15.922 9.207,4.975 -9.207,4.979 0,-9.954 z" />
      </g>
      <g
         style="fill:#00fff2;fill-opacity:1"
         transform="matrix(1.25,0,0,-1.25,34.729981,955.06986)"
         id="g9759">
        <path
           inkscape:connector-curvature="0"
           id="path9761"
           style="fill:#00fff2;fill-opacity:1;fill-rule:evenodd;stroke:none"
           d="m 0,0 0.23,0.134 c 0.354,0.2 0.566,0.71 0.364,1.066 -1.142,1.976 -9.212,15.948 -10.353,17.924 -0.202,0.355 -0.754,0.431 -1.103,0.217 l -0.229,-0.134 c -0.356,-0.196 -0.571,-0.71 -0.365,-1.064 C -10.318,16.166 -2.249,2.194 -1.107,0.221 -0.9,-0.139 -0.354,-0.196 0,0 M 8.685,5.362 C 7.488,4.355 5.649,3.711 3.084,3.413 2.105,3.302 1.186,3.281 0.349,3.353 L -2.294,7.932 C -1.311,7.251 0.302,7 2.582,7.259 4.923,7.531 6.711,8.107 7.572,8.998 L 8.685,5.362 z m -18.884,17.524 0.238,0 c 0.368,0 0.758,0.292 0.758,0.66 l 0,2.477 c 0,0.365 -0.394,0.665 -0.758,0.665 l -0.238,0 c -0.364,0 -0.759,-0.3 -0.759,-0.665 l 0,-2.477 c 0,-0.368 0.391,-0.66 0.759,-0.66 m -8.959,-5.154 0,-0.238 c 0,-0.364 0.299,-0.765 0.667,-0.765 l 2.473,0 c 0.365,0 0.668,0.401 0.668,0.765 l 0,0.238 c 0,0.368 -0.299,0.765 -0.668,0.765 l -2.473,0 c -0.372,0 -0.667,-0.397 -0.667,-0.765 m 2.796,6.323 -0.164,-0.166 c -0.26,-0.251 -0.329,-0.753 -0.07,-1.003 1.449,-1.451 0.304,-0.302 1.751,-1.756 0.257,-0.264 0.75,-0.189 1.012,0.066 l 0.166,0.172 c 0.258,0.256 0.328,0.756 0.067,1.003 -1.447,1.454 -0.302,0.305 -1.75,1.759 -0.257,0.26 -0.755,0.188 -1.012,-0.075 m 2.529,-10.03 0.166,-0.171 c 0.261,-0.258 0.323,-0.749 0.067,-1.01 -1.447,-1.443 -0.302,-0.302 -1.75,-1.748 -0.257,-0.263 -0.755,-0.188 -1.012,0.067 l -0.164,0.162 c -0.26,0.263 -0.329,0.757 -0.07,1.016 1.449,1.455 0.304,0.305 1.751,1.76 0.257,0.254 0.75,0.182 1.012,-0.076 m 10.035,10.03 0.167,-0.166 c 0.256,-0.251 0.325,-0.753 0.067,-1.003 -1.45,-1.451 -0.304,-0.302 -1.752,-1.756 -0.257,-0.264 -0.75,-0.189 -1.011,0.066 l -0.166,0.172 c -0.258,0.256 -0.328,0.756 -0.069,1.003 1.449,1.454 0.304,0.305 1.751,1.759 0.257,0.26 0.755,0.188 1.013,-0.075 M 9.328,8.45 c 4.137,-0.594 7.004,-2.16 7.254,-4.279 0.385,-3.327 -5.771,-6.767 -13.749,-7.687 -7.979,-0.927 -14.763,1.017 -15.149,4.332 -0.254,2.193 2.335,4.428 6.421,5.967 l -6.311,10.932 c -0.455,0.782 -0.073,1.806 0.682,2.244 l 0.226,0.139 c 0.754,0.425 1.839,0.238 2.289,-0.535 l 5.615,-9.729 7.699,14.794 c 0.187,0.358 0.801,0.313 1.119,0.067 L 5.637,24.537 C 5.959,24.284 6.042,23.793 5.854,23.429 L 4.881,21.556 9.328,8.45 z" />
      </g>
    </g>
    <g
       transform="matrix(0.58724379,0,0,0.58724379,675.68676,365.61798)"
       style="font-size:40px;font-style:normal;font-weight:normal;line-height:125%;letter-spacing:0px;word-spacing:0px;fill:#00fff2;fill-opacity:1;stroke:none;font-family:Sans"
       id="flowRoot9763">
      <path
         d="m 1136.0234,-46.598784 -5.1171,-23.160156 3.8671,0 4.2383,19.078125 14.1602,-25.078125 4.2969,0 -16.8555,29.160156 -4.5899,0"
         style="font-style:italic;fill:#00fff2;fill-opacity:1;-inkscape-font-specification:Sans Italic"
         id="path9772"
         inkscape:connector-curvature="0"
         sodipodi:nodetypes="cccccccc" />
    </g>
    <g
       id="g9774"
       style="font-size:40px;font-style:normal;font-weight:normal;line-height:125%;letter-spacing:0px;word-spacing:0px;fill:#00fff2;fill-opacity:1;stroke:none;font-family:Sans"
       transform="matrix(0.58724379,0,0,0.58724379,675.68676,439.61798)">
      <path
         sodipodi:nodetypes="cccccccc"
         inkscape:connector-curvature="0"
         id="path9776"
         style="font-style:italic;fill:#00fff2;fill-opacity:1;-inkscape-font-specification:Sans Italic"
         d="m 1136.0234,-46.598784 -5.1171,-23.160156 3.8671,0 4.2383,19.078125 14.1602,-25.078125 4.2969,0 -16.8555,29.160156 -4.5899,0" />
    </g>
    <g
       transform="matrix(0.58724379,0,0,0.58724379,675.68676,513.61798)"
       style="font-size:40px;font-style:normal;font-weight:normal;line-height:125%;letter-spacing:0px;word-spacing:0px;fill:#00fff2;fill-opacity:1;stroke:none;font-family:Sans"
       id="g9778">
      <path
         d="m 1136.0234,-46.598784 -5.1171,-23.160156 3.8671,0 4.2383,19.078125 14.1602,-25.078125 4.2969,0 -16.8555,29.160156 -4.5899,0"
         style="font-style:italic;fill:#00fff2;fill-opacity:1;-inkscape-font-specification:Sans Italic"
         id="path9780"
         inkscape:connector-curvature="0"
         sodipodi:nodetypes="cccccccc" />
    </g>
    <g
       id="g9782"
       style="font-size:40px;font-style:normal;font-weight:normal;line-height:125%;letter-spacing:0px;word-spacing:0px;fill:#00fff2;fill-opacity:1;stroke:none;font-family:Sans"
       transform="matrix(0.58724379,0,0,0.58724379,675.68676,587.61798)">
      <path
         sodipodi:nodetypes="cccccccc"
         inkscape:connector-curvature="0"
         id="path9784"
         style="font-style:italic;fill:#00fff2;fill-opacity:1;-inkscape-font-specification:Sans Italic"
         d="m 1136.0234,-46.598784 -5.1171,-23.160156 3.8671,0 4.2383,19.078125 14.1602,-25.078125 4.2969,0 -16.8555,29.160156 -4.5899,0" />
    </g>
    <g
       transform="matrix(0.58724379,0,0,0.58724379,675.68676,661.61798)"
       style="font-size:40px;font-style:normal;font-weight:normal;line-height:125%;letter-spacing:0px;word-spacing:0px;fill:#00fff2;fill-opacity:1;stroke:none;font-family:Sans"
       id="g9786">
      <path
         d="m 1136.0234,-46.598784 -5.1171,-23.160156 3.8671,0 4.2383,19.078125 14.1602,-25.078125 4.2969,0 -16.8555,29.160156 -4.5899,0"
         style="font-style:italic;fill:#00fff2;fill-opacity:1;-inkscape-font-specification:Sans Italic"
         id="path9788"
         inkscape:connector-curvature="0"
         sodipodi:nodetypes="cccccccc" />
    </g>
    <g
       id="g9790"
       style="font-size:40px;font-style:normal;font-weight:normal;line-height:125%;letter-spacing:0px;word-spacing:0px;fill:#00fff2;fill-opacity:1;stroke:none;font-family:Sans"
       transform="matrix(0.58724379,0,0,0.58724379,675.68676,735.61798)">
      <path
         sodipodi:nodetypes="cccccccc"
         inkscape:connector-curvature="0"
         id="path9792"
         style="font-style:italic;fill:#00fff2;fill-opacity:1;-inkscape-font-specification:Sans Italic"
         d="m 1136.0234,-46.598784 -5.1171,-23.160156 3.8671,0 4.2383,19.078125 14.1602,-25.078125 4.2969,0 -16.8555,29.160156 -4.5899,0" />
    </g>
    <g
       transform="matrix(0.58724379,0,0,0.58724379,675.68676,809.61798)"
       style="font-size:40px;font-style:normal;font-weight:normal;line-height:125%;letter-spacing:0px;word-spacing:0px;fill:#00fff2;fill-opacity:1;stroke:none;font-family:Sans"
       id="g9794">
      <path
         d="m 1136.0234,-46.598784 -5.1171,-23.160156 3.8671,0 4.2383,19.078125 14.1602,-25.078125 4.2969,0 -16.8555,29.160156 -4.5899,0"
         style="font-style:italic;fill:#00fff2;fill-opacity:1;-inkscape-font-specification:Sans Italic"
         id="path9796"
         inkscape:connector-curvature="0"
         sodipodi:nodetypes="cccccccc" />
    </g>
    <g
       id="g9798"
       style="font-size:40px;font-style:normal;font-weight:normal;line-height:125%;letter-spacing:0px;word-spacing:0px;fill:#00fff2;fill-opacity:1;stroke:none;font-family:Sans"
       transform="matrix(0.58724379,0,0,0.58724379,675.68676,883.61798)">
      <path
         sodipodi:nodetypes="cccccccc"
         inkscape:connector-curvature="0"
         id="path9800"
         style="font-style:italic;fill:#00fff2;fill-opacity:1;-inkscape-font-specification:Sans Italic"
         d="m 1136.0234,-46.598784 -5.1171,-23.160156 3.8671,0 4.2383,19.078125 14.1602,-25.078125 4.2969,0 -16.8555,29.160156 -4.5899,0" />
    </g>
    <g
       transform="matrix(0.58724379,0,0,0.58724379,675.68676,957.61798)"
       style="font-size:40px;font-style:normal;font-weight:normal;line-height:125%;letter-spacing:0px;word-spacing:0px;fill:#00fff2;fill-opacity:1;stroke:none;font-family:Sans"
       id="g9802">
      <path
         d="m 1136.0234,-46.598784 -5.1171,-23.160156 3.8671,0 4.2383,19.078125 14.1602,-25.078125 4.2969,0 -16.8555,29.160156 -4.5899,0"
         style="font-style:italic;fill:#00fff2;fill-opacity:1;-inkscape-font-specification:Sans Italic"
         id="path9804"
         inkscape:connector-curvature="0"
         sodipodi:nodetypes="cccccccc" />
    </g>
    <g
       id="g9806"
       style="font-size:40px;font-style:normal;font-weight:normal;line-height:125%;letter-spacing:0px;word-spacing:0px;fill:#00fff2;fill-opacity:1;stroke:none;font-family:Sans"
       transform="matrix(0.58724379,0,0,0.58724379,675.68676,1031.618)">
      <path
         sodipodi:nodetypes="cccccccc"
         inkscape:connector-curvature="0"
         id="path9808"
         style="font-style:italic;fill:#00fff2;fill-opacity:1;-inkscape-font-specification:Sans Italic"
         d="m 1136.0234,-46.598784 -5.1171,-23.160156 3.8671,0 4.2383,19.078125 14.1602,-25.078125 4.2969,0 -16.8555,29.160156 -4.5899,0" />
    </g>
  </g>
</svg>
